<?xml version="1.0" encoding="UTF-8"?>
<svg width="118px" height="90px" viewBox="0 0 118 90" version="1.1" xmlns="http://www.w3.org/2000/svg" xmlns:xlink="http://www.w3.org/1999/xlink">
    <title>底稿</title>
    <defs>
        <filter x="-47.5%" y="-62.8%" width="195.0%" height="226.7%" filterUnits="objectBoundingBox" id="filter-1">
            <feOffset dx="0" dy="10" in="SourceAlpha" result="shadowOffsetOuter1"></feOffset>
            <feGaussianBlur stdDeviation="9.5" in="shadowOffsetOuter1" result="shadowBlurOuter1"></feGaussianBlur>
            <feColorMatrix values="0 0 0 0 0   0 0 0 0 0   0 0 0 0 0  0 0 0 0.0603488309 0" type="matrix" in="shadowBlurOuter1" result="shadowMatrixOuter1"></feColorMatrix>
            <feMerge>
                <feMergeNode in="shadowMatrixOuter1"></feMergeNode>
                <feMergeNode in="SourceGraphic"></feMergeNode>
            </feMerge>
        </filter>
        <path d="M1.02670829,0 L40.0226306,0 C40.5896659,-3.26207305e-16 41.0493389,0.459672959 41.0493389,1.02670829 L41.0493389,54.1471343 C41.0493389,54.7141696 40.5896659,55.1738426 40.0226306,55.1738426 L1.02670829,55.1738426 C0.459672959,55.1738426 -8.18736619e-16,54.7141696 0,54.1471343 L0,1.02670829 C-2.91486405e-16,0.459672959 0.459672959,-7.84015719e-16 1.02670829,0 Z" id="path-2"></path>
        <filter x="-31.7%" y="-19.9%" width="163.3%" height="147.1%" filterUnits="objectBoundingBox" id="filter-3">
            <feOffset dx="0" dy="2" in="SourceAlpha" result="shadowOffsetOuter1"></feOffset>
            <feGaussianBlur stdDeviation="4" in="shadowOffsetOuter1" result="shadowBlurOuter1"></feGaussianBlur>
            <feComposite in="shadowBlurOuter1" in2="SourceAlpha" operator="out" result="shadowBlurOuter1"></feComposite>
            <feColorMatrix values="0 0 0 0 0   0 0 0 0 0   0 0 0 0 0  0 0 0 0.1 0" type="matrix" in="shadowBlurOuter1"></feColorMatrix>
        </filter>
        <path d="M1.02670829,0 L40.0226306,0 C40.5896659,-3.26207305e-16 41.0493389,0.459672959 41.0493389,1.02670829 L41.0493389,54.1471343 C41.0493389,54.7141696 40.5896659,55.1738426 40.0226306,55.1738426 L1.02670829,55.1738426 C0.459672959,55.1738426 -8.18736619e-16,54.7141696 0,54.1471343 L0,1.02670829 C-2.91486405e-16,0.459672959 0.459672959,-7.84015719e-16 1.02670829,0 Z" id="path-4"></path>
        <filter x="-31.7%" y="-19.9%" width="163.3%" height="147.1%" filterUnits="objectBoundingBox" id="filter-5">
            <feOffset dx="0" dy="2" in="SourceAlpha" result="shadowOffsetOuter1"></feOffset>
            <feGaussianBlur stdDeviation="4" in="shadowOffsetOuter1" result="shadowBlurOuter1"></feGaussianBlur>
            <feComposite in="shadowBlurOuter1" in2="SourceAlpha" operator="out" result="shadowBlurOuter1"></feComposite>
            <feColorMatrix values="0 0 0 0 0   0 0 0 0 0   0 0 0 0 0  0 0 0 0.1 0" type="matrix" in="shadowBlurOuter1"></feColorMatrix>
        </filter>
        <path d="M1.02670829,0 L40.0226306,0 C40.5896659,-3.26207305e-16 41.0493389,0.459672959 41.0493389,1.02670829 L41.0493389,54.1471343 C41.0493389,54.7141696 40.5896659,55.1738426 40.0226306,55.1738426 L1.02670829,55.1738426 C0.459672959,55.1738426 -8.18736619e-16,54.7141696 0,54.1471343 L0,1.02670829 C-2.91486405e-16,0.459672959 0.459672959,-7.84015719e-16 1.02670829,0 Z" id="path-6"></path>
        <filter x="-31.7%" y="-19.9%" width="163.3%" height="147.1%" filterUnits="objectBoundingBox" id="filter-7">
            <feOffset dx="0" dy="2" in="SourceAlpha" result="shadowOffsetOuter1"></feOffset>
            <feGaussianBlur stdDeviation="4" in="shadowOffsetOuter1" result="shadowBlurOuter1"></feGaussianBlur>
            <feComposite in="shadowBlurOuter1" in2="SourceAlpha" operator="out" result="shadowBlurOuter1"></feComposite>
            <feColorMatrix values="0 0 0 0 0   0 0 0 0 0   0 0 0 0 0  0 0 0 0.1 0" type="matrix" in="shadowBlurOuter1"></feColorMatrix>
        </filter>
        <filter x="-13.3%" y="-30.8%" width="126.7%" height="161.5%" filterUnits="objectBoundingBox" id="filter-8">
            <feOffset dx="0" dy="1" in="SourceAlpha" result="shadowOffsetOuter1"></feOffset>
            <feGaussianBlur stdDeviation="0.5" in="shadowOffsetOuter1" result="shadowBlurOuter1"></feGaussianBlur>
            <feColorMatrix values="0 0 0 0 0.226589816   0 0 0 0 0.391045427   0 0 0 0 0.603870337  0 0 0 0.220877267 0" type="matrix" in="shadowBlurOuter1" result="shadowMatrixOuter1"></feColorMatrix>
            <feMerge>
                <feMergeNode in="shadowMatrixOuter1"></feMergeNode>
                <feMergeNode in="SourceGraphic"></feMergeNode>
            </feMerge>
        </filter>
    </defs>
    <g id="页面3" stroke="none" stroke-width="1" fill="none" fill-rule="evenodd">
        <g id="项目列表-新建项目3" transform="translate(-507.000000, -151.000000)">
            <g id="编组-24" transform="translate(173.000000, 70.000000)">
                <g id="编组-21备份" transform="translate(318.000000, 73.000000)">
                    <g id="底稿" transform="translate(15.500000, 8.000000)" filter="url(#filter-1)">
                        <polygon id="路径-4" fill="#203062" points="92.4516129 17.1179321 55.4901145 16.6756851 55.4901145 73.144641 89.3529603 69.6139193"></polygon>
                        <g id="编组-15" transform="translate(56.000000, 44.500000) rotate(3.000000) translate(-56.000000, -44.500000) translate(28.000000, 10.000000)">
                            <g id="编组-18备份" transform="translate(31.098102, 30.703194) rotate(7.000000) translate(-31.098102, -30.703194) translate(10.098102, 2.703194)">
                                <g id="矩形">
                                    <use fill="black" fill-opacity="1" filter="url(#filter-3)" xlink:href="#path-2"></use>
                                    <path stroke="#D9DEE5" stroke-width="0.5" d="M40.0226306,0.25 C40.2371127,0.25 40.4312897,0.336936037 40.5718463,0.477492591 C40.7124028,0.618049146 40.7993389,0.812226218 40.7993389,1.02670829 L40.7993389,1.02670829 L40.7993389,54.1471343 C40.7993389,54.3616164 40.7124028,54.5557934 40.5718463,54.69635 C40.4312897,54.8369065 40.2371127,54.9238426 40.0226306,54.9238426 L40.0226306,54.9238426 L1.02670829,54.9238426 C0.812226218,54.9238426 0.618049146,54.8369065 0.477492591,54.69635 C0.336936037,54.5557934 0.25,54.3616164 0.25,54.1471343 L0.25,54.1471343 L0.25,1.02670829 C0.25,0.812226218 0.336936037,0.618049146 0.477492591,0.477492591 C0.618049146,0.336936037 0.812226218,0.25 1.02670829,0.25 L1.02670829,0.25 Z" stroke-linejoin="square" fill="#FFFFFF" fill-rule="evenodd"></path>
                                </g>
                                <rect id="矩形" fill="#E6EDF5" x="6.62086111" y="3.97251667" width="20.7453648" height="2.64834444" rx="1.32417222"></rect>
                                <rect id="矩形备份-22" fill="#D8D8D8" x="6.17947037" y="34.8698685" width="28.6903981" height="2.64834444" rx="1.32417222"></rect>
                                <rect id="矩形备份-23" fill="#D8D8D8" x="6.17947037" y="41.0493389" width="28.6903981" height="2.64834444" rx="1.32417222"></rect>
                                <rect id="矩形备份-24" fill="#D8D8D8" x="6.62086111" y="47.2288092" width="15.4486759" height="2.64834444" rx="1.32417222"></rect>
                                <rect id="矩形备份-21" fill="#D8D8D8" x="6.62086111" y="10.151987" width="14.1245037" height="2.64834444" rx="1.32417222"></rect>
                                <rect id="矩形" fill="#D8D8D8" x="6.17947037" y="16.3314574" width="28.6903981" height="15.0072852" rx="1.76556296"></rect>
                            </g>
                            <g id="编组-18备份" transform="translate(28.069389, 34.171112) rotate(-1.000000) translate(-28.069389, -34.171112) translate(7.069389, 6.171112)">
                                <g id="矩形">
                                    <use fill="black" fill-opacity="1" filter="url(#filter-5)" xlink:href="#path-4"></use>
                                    <path stroke="#D9DEE5" stroke-width="0.5" d="M40.0226306,0.25 C40.2371127,0.25 40.4312897,0.336936037 40.5718463,0.477492591 C40.7124028,0.618049146 40.7993389,0.812226218 40.7993389,1.02670829 L40.7993389,1.02670829 L40.7993389,54.1471343 C40.7993389,54.3616164 40.7124028,54.5557934 40.5718463,54.69635 C40.4312897,54.8369065 40.2371127,54.9238426 40.0226306,54.9238426 L40.0226306,54.9238426 L1.02670829,54.9238426 C0.812226218,54.9238426 0.618049146,54.8369065 0.477492591,54.69635 C0.336936037,54.5557934 0.25,54.3616164 0.25,54.1471343 L0.25,54.1471343 L0.25,1.02670829 C0.25,0.812226218 0.336936037,0.618049146 0.477492591,0.477492591 C0.618049146,0.336936037 0.812226218,0.25 1.02670829,0.25 L1.02670829,0.25 Z" stroke-linejoin="square" fill="#FFFFFF" fill-rule="evenodd"></path>
                                </g>
                                <rect id="矩形" fill="#E6EDF5" x="6.62086111" y="3.97251667" width="20.7453648" height="2.64834444" rx="1.32417222"></rect>
                                <rect id="矩形备份-22" fill="#D8D8D8" x="6.17947037" y="34.8698685" width="28.6903981" height="2.64834444" rx="1.32417222"></rect>
                                <rect id="矩形备份-23" fill="#D8D8D8" x="6.17947037" y="41.0493389" width="28.6903981" height="2.64834444" rx="1.32417222"></rect>
                                <rect id="矩形备份-24" fill="#D8D8D8" x="6.62086111" y="47.2288092" width="15.4486759" height="2.64834444" rx="1.32417222"></rect>
                                <rect id="矩形备份-21" fill="#D8D8D8" x="6.62086111" y="10.151987" width="14.1245037" height="2.64834444" rx="1.32417222"></rect>
                                <rect id="矩形" fill="#D8D8D8" x="6.17947037" y="16.3314574" width="28.6903981" height="15.0072852" rx="1.76556296"></rect>
                            </g>
                            <g id="编组-18" transform="translate(25.025380, 38.081814) rotate(-8.000000) translate(-25.025380, -38.081814) translate(4.025380, 10.081814)">
                                <g id="矩形">
                                    <use fill="black" fill-opacity="1" filter="url(#filter-7)" xlink:href="#path-6"></use>
                                    <path stroke="#D9DEE5" stroke-width="0.5" d="M40.0226306,0.25 C40.2371127,0.25 40.4312897,0.336936037 40.5718463,0.477492591 C40.7124028,0.618049146 40.7993389,0.812226218 40.7993389,1.02670829 L40.7993389,1.02670829 L40.7993389,54.1471343 C40.7993389,54.3616164 40.7124028,54.5557934 40.5718463,54.69635 C40.4312897,54.8369065 40.2371127,54.9238426 40.0226306,54.9238426 L40.0226306,54.9238426 L1.02670829,54.9238426 C0.812226218,54.9238426 0.618049146,54.8369065 0.477492591,54.69635 C0.336936037,54.5557934 0.25,54.3616164 0.25,54.1471343 L0.25,54.1471343 L0.25,1.02670829 C0.25,0.812226218 0.336936037,0.618049146 0.477492591,0.477492591 C0.618049146,0.336936037 0.812226218,0.25 1.02670829,0.25 L1.02670829,0.25 Z" stroke-linejoin="square" fill="#FFFFFF" fill-rule="evenodd"></path>
                                </g>
                                <rect id="矩形" fill="#E6EDF5" x="6.62086111" y="3.97251667" width="20.7453648" height="2.64834444" rx="1.32417222"></rect>
                                <rect id="矩形备份-22" fill="#E6EDF5" x="6.17947037" y="34.8698685" width="28.6903981" height="2.64834444" rx="1.32417222"></rect>
                                <rect id="矩形备份-23" fill="#E6EDF5" x="6.17947037" y="41.0493389" width="28.6903981" height="2.64834444" rx="1.32417222"></rect>
                                <rect id="矩形备份-24" fill="#E6EDF5" x="6.62086111" y="47.2288092" width="15.4486759" height="2.64834444" rx="1.32417222"></rect>
                                <rect id="矩形备份-21" fill="#E6EDF5" x="6.62086111" y="10.151987" width="14.1245037" height="2.64834444" rx="1.32417222"></rect>
                                <rect id="矩形" fill="#E6EDF5" x="6.17947037" y="16.3314574" width="28.6903981" height="15.0072852" rx="1.76556296"></rect>
                            </g>
                        </g>
                        <path d="M55.9979541,26.779399 L92.4516129,17.7023933 L92.4516129,17.7023933 L89.3192256,70.0850285 L55.866934,80.5264139 C54.7843715,80.8643116 53.6328611,80.2606416 53.2949634,79.1780791 C53.2331445,78.9800228 53.2016995,78.7737411 53.2016995,78.5662613 L53.2016995,54.4003656 L53.2016995,54.4003656 L51.3832813,52.5644877 L51.3832813,36.0919023 L54.0601113,34.6891258 L54.4448335,28.6416054 C54.501629,27.7488267 55.129877,26.9955513 55.9979541,26.779399 Z" id="路径-2" fill="#4273B2"></path>
                        <g id="编组-17" filter="url(#filter-8)" transform="translate(72.609593, 44.149628) rotate(-11.000000) translate(-72.609593, -44.149628) translate(57.609593, 37.649628)">
                            <g id="编组-16" transform="translate(0.000000, 0.000000)">
                                <path d="M5.36377836,4.5488623 C4.90299169,4.54988319 4.52861579,4.92396201 4.52810588,5.3838574 C4.52755475,5.8514347 4.89934173,6.22199088 5.3690411,6.22203332 C5.84098986,6.22207576 6.20776875,5.85525443 6.20734471,5.38368764 C6.20691992,4.91526151 5.8355998,4.54780356 5.36377836,4.5488623" id="Fill-1" fill="#F17021"></path>
                                <path d="M6.74631662,3.2135762 C6.30131816,3.21387348 5.94667753,3.56796238 5.9463803,4.01215444 C5.94612579,4.45723778 6.29936586,4.81226039 6.74381257,4.81362235 C7.1926732,4.81497664 7.5539347,4.45537036 7.55182193,4.00931087 C7.549733,3.56766529 7.19101798,3.2132793 6.74631662,3.2135762" id="Fill-3" fill="#F17021"></path>
                                <path d="M5.36655403,3.42967979 C5.81634837,3.42946748 6.16665998,3.0800047 6.16653269,2.63161093 C6.16640533,2.18436308 5.81439606,1.83426368 5.36502614,1.83439097 C4.91650505,1.83451833 4.56508996,2.185509 4.56517482,2.63326615 C4.56525972,3.08110818 4.91620796,3.4298919 5.36655403,3.42967979" id="Fill-5" fill="#F17021"></path>
                                <path d="M6.73176769,6.16076796 C6.40713315,6.16013248 6.14000676,6.42577343 6.13936882,6.74989868 C6.13869107,7.07699482 6.40038496,7.34208403 6.72548636,7.34357565 C7.0563598,7.34505493 7.32616,7.07835295 7.32518649,6.75066262 C7.3242077,6.43107861 7.05296448,6.16140573 6.73176769,6.16076796" id="Fill-7" fill="#FEFEFE"></path>
                                <path d="M3.98434682,6.16151183 C3.66013669,6.15811652 3.38316388,6.4325004 3.38422188,6.75603146 C3.38524351,7.07879858 3.65262455,7.34346338 3.97802304,7.34371828 C4.30596802,7.34401511 4.56902003,7.08300028 4.56944487,6.75688029 C4.56982642,6.42885043 4.31046681,6.16494959 3.98434682,6.16151183" id="Fill-9" fill="#FEFEFE"></path>
                                <path d="M5.3795878,7.53588196 C5.05249165,7.53436071 4.78396469,7.79647902 4.7821295,8.11911881 C4.78022984,8.44990736 5.04659229,8.71924071 5.37513144,8.71864751 C5.69704973,8.71809479 5.9673168,8.44931318 5.96825296,8.12875302 C5.96918422,7.8049673 5.70354327,7.53741649 5.3795878,7.53588196" id="Fill-11" fill="#FEFEFE"></path>
                                <path d="M1.23742675,6.16795869 C0.907784114,6.1659215 0.645878014,6.42612994 0.645665722,6.75589989 C0.645496041,7.08859831 0.900738835,7.34409575 1.23352213,7.3442656 C1.56448045,7.34443528 1.82901792,7.08533032 1.83012454,6.76001671 C1.83118243,6.43720715 1.56367406,6.16995343 1.23742675,6.16795869" id="Fill-13" fill="#FEFEFE"></path>
                                <path d="M2.62872916,7.53532824 C2.29828014,7.53558302 2.03926006,7.79536705 2.03985322,8.12598584 C2.04044842,8.45320931 2.3051981,8.71783166 2.63106344,8.71690041 C2.95569798,8.71592179 3.22231508,8.44803145 3.22184884,8.12326958 C3.22133893,7.79579147 2.95837179,7.53511617 2.62872916,7.53532824" id="Fill-15" fill="#FEFEFE"></path>
                                <path d="M3.96975969,4.60417428 C4.29002277,4.61003119 4.56262411,4.34944078 4.56843859,4.03189396 C4.57442283,3.70445828 4.3158696,3.43605864 3.9888159,3.43015928 C3.66732202,3.42442969 3.39917703,3.68056375 3.38988236,4.00231228 C3.38058768,4.32567357 3.6431304,4.59819003 3.96975969,4.60417428" id="Fill-17" fill="#FEFEFE"></path>
                                <path d="M2.63181465,3.21423856 C2.96103287,3.21406871 3.21691229,2.9596323 3.21750765,2.63185709 C3.21814309,2.30365747 2.96298518,2.04658969 2.63550706,2.04548268 C2.30166272,2.04438274 2.04319438,2.30132319 2.04412557,2.63334254 C2.04501936,2.95933521 2.30310573,3.21440824 2.63181465,3.21423856" id="Fill-19" fill="#FEFEFE"></path>
                                <path d="M2.61934111,5.98490877 C2.94673435,5.98779479 3.21241774,5.72512474 3.21258759,5.39836813 C3.21275727,5.07313941 2.95687785,4.8157321 2.63050321,4.81288852 C2.29937513,4.80996007 2.03755391,5.06825864 2.03755391,5.39781639 C2.03751147,5.72198408 2.29521587,5.9820652 2.61934111,5.98490877" id="Fill-21" fill="#FEFEFE"></path>
                                <path d="M1.23259691,1.5776161 C1.40868643,1.57672056 1.55544891,1.43089179 1.55723145,1.25509936 C1.55905643,1.07497791 1.40911084,0.924565457 1.2289045,0.925704871 C1.05357893,0.926857295 0.905415881,1.0735349 0.903208927,1.24813896 C0.901001972,1.4260959 1.05336673,1.57854554 1.23259691,1.5776161" id="Fill-23" fill="#FEFEFE"></path>
                                <path d="M8.02801403,2.30711645 C7.85009953,2.31000247 7.70779339,2.45409114 7.70728247,2.63187831 C7.70673236,2.81098117 7.84683154,2.95434834 8.0256373,2.95757389 C8.2075413,2.96088432 8.35833572,2.8145887 8.35914495,2.63395794 C8.35990605,2.45532194 8.20681979,2.30418799 8.02801403,2.30711645" id="Fill-25" fill="#FEFEFE"></path>
                                <path d="M6.73902094,1.60378546 C6.92398071,1.60578021 7.07108273,1.46262525 7.07112518,1.28063637 C7.07116761,1.10293408 6.92911613,0.960076207 6.74946153,0.957275072 C6.56615697,0.954346613 6.41693288,1.09953876 6.41693288,1.2807637 C6.41697532,1.45778692 6.56059714,1.6018756 6.73902094,1.60378546" id="Fill-27" fill="#FEFEFE"></path>
                                <path d="M8.03607365,5.05741486 C7.85416966,5.05427419 7.70651591,5.20023029 7.70647345,5.38319532 C7.70643102,5.56127958 7.84788833,5.7056229 8.02593015,5.70906066 C8.20520278,5.71254086 8.35790706,5.5624255 8.35777982,5.38289823 C8.35760997,5.20676627 8.213012,5.06047064 8.03607365,5.05741486" id="Fill-29" fill="#FEFEFE"></path>
                                <path d="M1.22480466,4.34515419 C1.40743016,4.34757335 1.55673913,4.20102308 1.55606238,4.02001035 C1.55533856,3.84290224 1.41158942,3.6996624 1.23295342,3.69804962 C1.04871515,3.69639441 0.901188714,3.84090749 0.901865443,4.02242952 C0.902461958,4.19915565 1.04625354,4.34277747 1.22480466,4.34515419" id="Fill-31" fill="#FEFEFE"></path>
                                <path d="M3.98121888,1.58782748 C4.1607886,1.58642692 4.30292496,1.44535158 4.30432553,1.26705511 C4.3057261,1.08468426 4.16015197,0.940892678 3.97536196,0.94215753 C3.79006265,0.943439164 3.65076986,1.08684878 3.65408029,1.27299691 C3.6572634,1.45163292 3.80020616,1.58922805 3.98121888,1.58782748" id="Fill-33" fill="#FEFEFE"></path>
                                <path d="M5.37152817,0.656063958 C5.55292286,0.657379643 5.69607783,0.518001968 5.6981999,0.338092721 C5.70032197,0.155976521 5.56281172,0.013330855 5.38209608,0.0101901887 C5.19501424,0.00692219817 5.04986452,0.147827765 5.04973716,0.332872425 C5.04965232,0.513375851 5.19043056,0.654790715 5.37152817,0.656063958" id="Fill-35" fill="#FEFEFE"></path>
                                <path d="M2.62072895,0.654756762 C2.80242074,0.65352596 2.94239259,0.513044808 2.94230775,0.331947202 C2.94222283,0.150637388 2.80254806,0.0103684428 2.62089871,0.00930153498 C2.4343686,0.00824637097 2.29193515,0.151104244 2.29409966,0.337167498 C2.29617929,0.517586042 2.43852787,0.655987564 2.62072895,0.654756762" id="Fill-37" fill="#FEFEFE"></path>
                                <path d="M0.223950724,5.1628048 C0.101294975,5.16395984 0.0040616454,5.26263617 0.00384908,5.38605587 C0.00363723104,5.5115552 0.0977298941,5.60696354 0.223059454,5.60827923 C0.345757645,5.60955247 0.448126388,5.51274356 0.451479261,5.39220988 C0.454917017,5.26874774 0.348686104,5.161668 0.223950724,5.1628048" id="Fill-39" fill="#FEFEFE"></path>
                                <path d="M0.221629178,2.85813209 C0.345091314,2.85872354 0.4457624,2.76216928 0.44813912,2.64099898 C0.450558282,2.51804614 0.342375062,2.41003269 0.219379781,2.41253673 C0.0984216895,2.41495589 -0.000466855793,2.51660313 -1.64626648e-06,2.63798564 C0.000509297229,2.76182975 0.0968937978,2.85753518 0.221629178,2.85813209" id="Fill-41" fill="#FEFEFE"></path>
                            </g>
                            <path d="M28.651339,4.17627972 C28.193693,4.06741744 27.7539148,4.16388682 27.3225401,4.31697308 C27.237827,4.34706406 27.287059,4.39111827 27.3212244,4.42664175 C27.8227124,4.94803479 27.9554692,5.59021615 27.8906611,6.27793718 C27.815752,7.07282283 27.6399171,7.84903425 27.396176,8.61140976 C27.1490395,9.38456539 26.8406176,10.1328079 26.5238347,10.8785039 C26.5133092,10.9032473 26.5112296,10.9419114 26.4787619,10.942251 C26.4456576,10.9426754 26.4440872,10.9038415 26.4340711,10.8790557 C26.3958313,10.7843688 26.3592044,10.6890029 26.32071,10.594401 C25.8291108,9.38685723 25.2426551,8.22816359 24.5321006,7.13355652 C24.4964073,7.07855242 24.4767994,7.02970233 24.5021369,6.95793386 C24.6491116,6.54145605 24.7521594,6.11330685 24.8159489,5.67649959 C24.8972242,5.11996504 24.5866802,4.5190792 24.0769586,4.28140716 C23.5344722,4.02841376 22.989991,4.11062282 22.4527249,4.31616669 C22.3923731,4.33921239 22.4039596,4.36985511 22.4407564,4.41008959 C22.5097237,4.48563535 22.5781393,4.5621997 22.6401462,4.64339016 C23.0177477,5.13770556 23.0815796,5.70760916 23.0314138,6.30221368 C22.9778952,6.93722244 22.8296472,7.55555172 22.6701523,8.16933976 C22.4473772,9.02682653 22.1144666,9.84683751 21.7714974,10.6622648 C21.7624149,10.6838251 21.7587225,10.7112422 21.7223502,10.7126428 C21.7181485,10.7058522 21.7100846,10.69834 21.7085992,10.689682 C21.6651391,10.4324444 21.6205756,10.1752918 21.5796196,9.91762983 C21.4273822,8.96015103 21.1611046,8.03403647 20.8155889,7.12948214 C20.5778744,6.50707849 20.3238624,5.89125326 20.0102202,5.30309984 C19.8077321,4.92337631 19.5262181,4.59878421 19.1453911,4.39362231 C18.5553702,4.0757784 17.9215498,4.06631396 17.2805993,4.20925672 C17.1536994,4.23756515 17.0324867,4.29443668 16.936569,4.38768051 C16.7779654,4.54182781 16.8036,4.74041128 16.9966236,4.84159167 C17.0677979,4.87889769 17.1458902,4.90423523 17.2226667,4.92944544 C17.5285846,5.02969211 17.8089103,5.16308554 18.0168309,5.42647709 C18.2345554,5.70226154 18.3643838,6.02027522 18.5069021,6.33510579 C19.1658479,7.79059239 19.5432795,9.32039394 19.7356666,10.9009979 C19.7876149,11.3280012 19.8390964,11.7555986 19.927035,12.1772967 C19.9785589,12.4241786 20.1057559,12.6119819 20.3701236,12.657564 C20.7938165,12.7306057 21.1705266,12.6308259 21.4741951,12.314807 C21.5718104,12.2132871 21.6628049,12.1039155 21.7459476,11.9901725 C22.5516983,10.8883079 23.2405652,9.71586324 23.8491754,8.49554464 C23.9487855,8.29573036 24.0396526,8.09158705 24.135358,7.88782572 C24.1717728,7.91346035 24.1696931,7.94855941 24.1767809,7.97822598 C24.3976461,8.90047838 24.5206838,9.83631203 24.571274,10.7827561 C24.5963144,11.2514793 24.6165166,11.7208391 24.6736427,12.1872705 C24.7019087,12.4179397 24.829233,12.5734027 25.0526023,12.6332027 C25.3675602,12.7175338 25.6754304,12.6844295 25.9695071,12.5408925 C26.2028077,12.4270222 26.3605201,12.2304759 26.5144127,12.0324017 C26.9742657,11.4405983 27.3712628,10.8065233 27.7588805,10.1665913 C28.4227494,9.07049877 29.0356037,7.94979022 29.440198,6.72650071 C29.5760105,6.31587982 29.698539,5.90572579 29.6789735,5.46679646 C29.6501557,4.81977677 29.2574451,4.32045328 28.651339,4.17627972" id="Fill-43" fill="#FEFEFE"></path>
                            <path d="M15.425361,4.27351305 C14.9473432,4.09827236 14.451415,4.01669992 13.9447916,3.98750021 C13.1277939,3.94043266 12.3287915,4.01686969 11.5667555,4.33632637 C11.0235475,4.56406712 10.5615725,4.89532252 10.2613418,5.41658824 C9.86315624,6.10791679 9.8276752,7.09523191 10.5767241,7.79042262 C10.9034383,8.0935818 11.2704294,8.33549798 11.6680207,8.53026173 C12.2567683,8.81860885 12.8517124,9.09422353 13.4419879,9.3795573 C13.7706119,9.53837316 14.0829809,9.72375735 14.3370778,9.99194478 C14.5425367,10.2087356 14.6640466,10.4587157 14.6299237,10.7663312 C14.5807765,11.2098018 14.324218,11.4866473 13.9217034,11.6474154 C13.5021698,11.8150167 13.0607365,11.8275369 12.6188787,11.8272398 C12.3318897,11.82707 12.048296,11.7893396 11.7756522,11.6921487 C11.4706256,11.5834562 11.2485296,11.3933185 11.1779495,11.0641852 C11.1381819,10.8785464 11.1562195,10.6926529 11.1992975,10.5084995 C11.2526464,10.2807163 11.3417734,10.0664295 11.4416381,9.8560473 C11.4625193,9.81203553 11.4843766,9.7695941 11.4168099,9.74663328 C11.0378079,9.6176962 10.6566413,9.49890262 10.2477605,9.55038408 C9.90220236,9.59388655 9.5977275,9.71688183 9.39574871,10.0198712 C9.07892339,10.4951304 9.11818172,11.2465561 9.4800374,11.6892627 C9.77279843,12.047426 10.1673765,12.2462216 10.5945495,12.3872545 C11.2554475,12.6054035 11.9431261,12.6483967 12.6274518,12.6860422 C13.3666119,12.6487362 14.0973685,12.5890211 14.7992225,12.3436672 C15.3118302,12.164437 15.7807656,11.915518 16.1568392,11.5121121 C16.8346289,10.7850903 16.9520219,9.53323774 16.1517462,8.7219697 C15.8559719,8.4221634 15.5193688,8.17995012 15.1505103,7.98276721 C14.5065888,7.63852473 13.8295206,7.36341934 13.171254,7.04901318 C12.861389,6.90106234 12.5644263,6.73210298 12.3094382,6.49812335 C12.0347572,6.24597878 11.8988173,5.93916964 11.982724,5.56729778 C12.0669702,5.19385558 12.3366431,4.99030646 12.6880158,4.89540741 C13.0994855,4.78429573 13.5175336,4.76630056 13.9351574,4.87121579 C14.3966655,4.98712335 14.7075915,5.26316245 14.8414518,5.72662293 C14.8834264,5.87211217 14.9268439,6.01721944 14.9723412,6.16164764 C15.0803546,6.50461689 15.3010925,6.71296189 15.6711818,6.74211916 C16.1284459,6.7781095 16.6380826,6.60240195 16.7305625,5.97537218 C16.7923997,5.556263 16.676959,5.18540974 16.385259,4.87469599 C16.1185146,4.59050813 15.7876411,4.4063123 15.425361,4.27351305" id="Fill-45" fill="#FEFEFE"></path>
                        </g>
                    </g>
                </g>
            </g>
        </g>
    </g>
</svg>