<svg xmlns="http://www.w3.org/2000/svg" width="300pt" height="300pt" viewBox="0 0 512 512"><path fill="transparent" stroke="transparent" stroke-width=".25" d="M0 0h512v512H0z"/><path fill="#4a494b" stroke="#4a494b" stroke-width=".25" d="M189.37 55.31c4.24-2.86 8.77-5.51 13.85-6.54 7.24-1.44 14.66-.86 21.99-.91-6.09 13.11-12.4 26.14-19.02 39-37.8 23.05-75.68 45.97-113.58 68.87-3.43 2.15-7.23 3.81-10.17 6.66-.12 62.39.01 124.78-.03 187.18 3.93 3.93 9.05 6.31 13.71 9.25 20.3 12.81 40.89 25.16 61 38.26-.59 3.56-2.61 6.62-4.21 9.79-3.7 6.89-7.19 13.89-10.77 20.85-4.15-1.94-8.03-4.39-11.95-6.74-18.37-11.36-36.96-22.39-55.38-33.68-9.8-5.7-20.27-12.52-24.26-23.72-3.34-7.78-2.18-16.37-2.62-24.58-.07-58.35-.05-116.69-.03-175.04.09-12.58 5.6-25.75 16.64-32.49 33.33-21.24 67.69-40.81 101.21-61.73 7.9-4.77 15.7-9.69 23.62-14.43ZM370.17 85.96c6.87 3.58 13.19 8.14 19.95 11.94 18.69 11.73 37.88 22.66 56.25 34.91 9.68 6.77 15.07 18.44 15.06 30.12 0 63 .04 126 0 189 .09 11.71-6.64 22.77-16.36 29.03-23.99 14.47-47.84 29.16-71.9 43.52-30.36 18.98-61.43 36.8-91.67 55.97-6.45 3.7-12.69 8.24-20.1 9.76-4.15.67-8.43.54-12.56-.18-8.46-1.6-15.13-7.44-22.35-11.7-6.14-4.15-12.7-7.75-18.53-12.34 6.31-10.04 14.64-18.75 21.02-28.77 8.4 6.34 17.43 11.85 26.29 17.52 3.15-.86 5.62-3.34 8.45-4.93 35.39-21.59 70.89-43.01 106.35-64.5 15.79-9.63 31.5-19.41 47.46-28.77 3.06-1.96 6.51-3.6 8.82-6.5.81-2.57.41-5.35.52-8.01-.01-56.31-.02-112.63.01-168.95.08-3.78.49-7.58-.26-11.32-24.15-14.79-48.23-29.7-72.3-44.62 5.09-10.49 10.97-20.6 15.85-31.18Z"/><defs><linearGradient id="a" x1="0%" x2="100%" y1="0%" y2="0%"><stop offset="23%" stop-color="#bf37f9"/><stop offset="100%" stop-color="#fdcd43"/></linearGradient></defs><path fill="url(#a)" stroke="url(#a)" stroke-width=".25" d="M269.63 26.39c23.14-.25 46.29-.03 69.43-.12 9.33-.1 18.68.33 28-.44l.67.6c-5.28 11.3-10.9 22.47-16.55 33.6-20.55 42.88-41.28 85.69-62.68 128.16-5.05 10.45-10.65 20.63-15.31 31.25 33.33.22 66.67.01 100.01.08-3.13 4.68-7.12 8.69-10.68 13.02-30.99 37.39-61.46 75.22-92.49 112.58-35.9 44.08-71.86 88.12-107.34 132.55-5.19 6.15-9.61 12.96-15.25 18.73 5.1-12.75 10.95-25.2 16.11-37.94 12.74-30.25 25.16-60.64 38.55-90.62 12.71-29.35 26.27-58.33 38.76-87.78-32.01-.73-64.07 0-96.1-.36 17.52-35.68 35.35-71.21 52.82-106.92 23.96-48.83 48.47-97.38 72.05-146.39Z"/></svg>