<?xml version="1.0" encoding="UTF-8"?>
<svg width="140px" height="140px" viewBox="0 0 140 140" version="1.1" xmlns="http://www.w3.org/2000/svg" xmlns:xlink="http://www.w3.org/1999/xlink">
    <title>列表为空</title>
    <g id="页面1.1" stroke="none" stroke-width="1" fill="none" fill-rule="evenodd">
        <g id="公司管理-为空" transform="translate(-741.000000, -340.000000)">
            <g id="空状态_列表为空" transform="translate(741.000000, 340.000000)">
                <rect id="矩形" x="0" y="0" width="140" height="140"></rect>
                <path d="M7.17948718,35.8983534 L76.2820513,25.1282051 L93.8908247,113.974359 L36.0222755,122.993603 C29.7446992,123.972009 23.813034,119.823941 22.577861,113.591799 L7.17948718,35.8983534 L7.17948718,35.8983534 Z" id="矩形" fill="#EAEBF0"></path>
                <path d="M106.187625,93.5759023 L107.932759,101.110411 C109.162985,106.421842 105.854515,111.724904 100.543084,112.95513 C100.308803,113.009394 100.072618,113.055078 99.8350008,113.092093 L36.2776249,122.993162 C41.7970536,121.993156 45.9828249,117.16546 45.9828249,111.360651 C45.9828249,108.358508 44.8632258,105.617721 43.0185735,103.532621 L106.187625,93.5759023 Z" id="形状结合" fill="#D9DCE4"></path>
                <g id="编组-3" transform="translate(92.564103, 20.512821)">
                    <polygon id="路径-5" fill="#2A5099" points="9.03553049 18.5000548 17.8032045 29.6477538 35.606409 7.64815083e-14"></polygon>
                    <polygon id="路径-5" fill="#4686FF" points="14.0317395 17.8477617 17.8032045 29.6477538 35.606409 8.15318275e-14"></polygon>
                    <polygon id="路径-3" fill="#B5CEFF" points="14.0317395 17.8477617 30.2494808 15.2386931 35.606409 4.6715452e-14"></polygon>
                    <polygon id="路径-4" fill="#B5CEFF" points="1.43934095e-13 19.9191054 9.03553049 18.5000548 35.606409 2.00750186e-13"></polygon>
                </g>
                <path d="M91.5026178,43.199324 C88.8936165,62.8755467 88.9850787,63.5143788 85.8444665,65.2793937 C80.765133,68.1339645 76.237188,56.1768132 85.1538929,55.9101761 C94.0705978,55.6435389 94.8032016,80.3126831 90.011631,90.1979617" id="路径" stroke="#4686FF" stroke-width="0.897435897" stroke-dasharray="1.974359017152053" transform="translate(86.508771, 66.698643) rotate(41.000000) translate(-86.508771, -66.698643) "></path>
            </g>
        </g>
    </g>
</svg>