<?xml version="1.0" encoding="UTF-8"?>
<svg width="130px" height="15px" viewBox="0 0 130 15" version="1.1" xmlns="http://www.w3.org/2000/svg" xmlns:xlink="http://www.w3.org/1999/xlink">
    <title>品牌标签</title>
    <g id="页面3" stroke="none" stroke-width="1" fill="none" fill-rule="evenodd">
        <g id="登录" transform="translate(-227.000000, -602.000000)">
            <g id="品牌标签" transform="translate(227.000000, 602.000000)">
                <path d="M2.78571429,8.98617512 C4.3242218,8.98617512 5.57142857,10.2333819 5.57142857,11.7718894 C5.57142857,13.3103969 4.3242218,14.5576037 2.78571429,14.5576037 C1.24720677,14.5576037 -4.35207426e-13,13.3103969 -4.35207426e-13,11.7718894 C-4.35207426e-13,10.2333819 1.24720677,8.98617512 2.78571429,8.98617512 Z M7.27880184,4.49308756 C8.81730936,4.49308756 10.0645161,5.74029433 10.0645161,7.27880184 C10.0645161,8.81730936 8.81730936,10.0645161 7.27880184,10.0645161 C5.74029433,10.0645161 4.49308756,8.81730936 4.49308756,7.27880184 C4.49308756,5.74029433 5.74029433,4.49308756 7.27880184,4.49308756 Z M2.78571429,-4.35207426e-13 C4.3242218,-4.35207426e-13 5.57142857,1.24720677 5.57142857,2.78571429 C5.57142857,4.3242218 4.3242218,5.57142857 2.78571429,5.57142857 C1.24720677,5.57142857 -4.35207426e-13,4.3242218 -4.35207426e-13,2.78571429 C-4.35207426e-13,1.24720677 1.24720677,-4.35207426e-13 2.78571429,-4.35207426e-13 Z" id="形状结合" fill="#F37021"></path>
                <path d="M24.6409873,11.4651835 C25.5118155,11.4651835 26.248597,11.2265614 26.8513319,10.7493171 C27.4540667,10.2720728 27.8714178,9.57902281 28.1033851,8.67016714 L28.1033851,8.67016714 L26.9967868,8.3906655 C26.8446771,9.09417303 26.5537672,9.62465573 26.1240572,9.98211361 C25.6943472,10.3395715 25.1695686,10.5183004 24.5497214,10.5183004 C24.0401538,10.5183004 23.5667123,10.3871058 23.1293968,10.1247165 C22.6920813,9.86232719 22.3697988,9.46589119 22.1625493,8.93540849 C21.9552998,8.40492579 21.851675,7.78412793 21.851675,7.07301492 C21.851675,6.52161713 21.9391381,5.986381 22.1140643,5.46730653 C22.2889905,4.94823206 22.5922593,4.53468372 23.0238707,4.22666151 C23.455482,3.91863929 23.9926195,3.76462819 24.6352832,3.76462819 C25.1942864,3.76462819 25.6582211,3.90342832 26.0270872,4.18102859 C26.3959533,4.45862885 26.6773564,4.90164846 26.8712963,5.5100874 L26.8712963,5.5100874 L27.9607822,5.25340222 C27.7364204,4.48144531 27.3390337,3.88251323 26.7686222,3.45660597 C26.1982107,3.03069871 25.4947032,2.81774509 24.6580996,2.81774509 C23.9203674,2.81774509 23.2444298,2.98601648 22.6302867,3.32255927 C22.0161437,3.65910206 21.5427021,4.15155732 21.2099621,4.79992507 C20.877222,5.44829282 20.710852,6.20789081 20.710852,7.07871904 C20.710852,7.87729515 20.8582083,8.62453422 21.1529209,9.32043626 C21.4476335,10.0163383 21.8773435,10.5477717 22.4420509,10.9147364 C23.0067583,11.2817012 23.7397371,11.4651835 24.6409873,11.4651835 Z M31.3456743,11.4594794 C31.7487651,11.4594794 32.1261874,11.3929314 32.4779412,11.2598354 C32.8296949,11.1267394 33.195709,10.8985748 33.5759833,10.5753416 C33.6064053,10.8605473 33.6748546,11.109627 33.7813315,11.3225806 L33.7813315,11.3225806 L34.8537051,11.3225806 C34.7244118,11.0906133 34.6378994,10.8481884 34.5941679,10.595306 C34.5504363,10.3424235 34.5285705,9.73873803 34.5285705,8.78424944 L34.5285705,7.41526183 C34.5285705,6.95893262 34.5114582,6.64330492 34.4772335,6.46837873 C34.4163896,6.18697572 34.3099128,5.95405768 34.157803,5.76962463 C34.0056933,5.58519158 33.7680219,5.43213116 33.4447887,5.31044337 C33.1215555,5.18875558 32.7013523,5.12791169 32.1841792,5.12791169 C31.6632034,5.12791169 31.2049728,5.19921312 30.8094875,5.341816 C30.4140022,5.48441888 30.1116841,5.68786565 29.9025332,5.95215631 C29.6933823,6.21644698 29.543174,6.56344731 29.4519081,6.99315731 L29.4519081,6.99315731 L30.4558324,7.13005607 C30.5661119,6.70034607 30.7362847,6.40088003 30.9663507,6.23165795 C31.1964166,6.06243587 31.5529238,5.97782483 32.0358722,5.97782483 C32.5530453,5.97782483 32.9428265,6.0938085 33.2052158,6.32577585 C33.3991557,6.4968993 33.4961257,6.79161191 33.4961257,7.20991368 C33.4961257,7.24794112 33.4942243,7.33730559 33.4904216,7.47800709 C33.098739,7.61490585 32.4883987,7.7327909 31.6594007,7.83166223 C31.2525071,7.88109789 30.9482876,7.93243493 30.7467422,7.98567333 C30.4729447,8.0617282 30.2267171,8.17390913 30.0080593,8.32221612 C29.7894016,8.47052311 29.612574,8.66731508 29.4775766,8.91259203 C29.3425793,9.15786898 29.2750806,9.42881444 29.2750806,9.72542843 C29.2750806,10.2311933 29.4538095,10.646643 29.8112674,10.9717776 C30.1687252,11.2969121 30.6801942,11.4594794 31.3456743,11.4594794 Z M31.5909513,10.6551992 C31.1916632,10.6551992 30.8883944,10.5639333 30.6811449,10.3814017 C30.4738954,10.19887 30.3702706,9.97070538 30.3702706,9.69690785 C30.3702706,9.51817891 30.4178049,9.35561163 30.5128735,9.20920601 C30.6079421,9.06280039 30.7429395,8.95157015 30.9178657,8.87551528 C31.0927919,8.79946042 31.3913072,8.73101103 31.8134118,8.67016714 C32.5587495,8.56369033 33.1177527,8.43439705 33.4904216,8.28228732 L33.4904216,8.28228732 L33.4904216,8.65875891 C33.4904216,9.11128537 33.4352818,9.45353228 33.3250023,9.68549962 C33.180498,9.98591635 32.9542348,10.2226371 32.6462126,10.3956619 C32.3381903,10.5686868 31.9864366,10.6551992 31.5909513,10.6551992 Z M38.0218408,11.4024383 C38.2500054,11.4024383 38.5085919,11.3720163 38.7976004,11.3111724 L38.7976004,11.3111724 L38.6492935,10.4042181 C38.462959,10.4308373 38.3127507,10.4441469 38.1986684,10.4441469 C38.0465586,10.4441469 37.9296243,10.4194291 37.8478653,10.3699934 C37.7661063,10.3205578 37.7071638,10.2540098 37.6710377,10.1703494 C37.6349117,10.086689 37.6168486,9.89845325 37.6168486,9.60564201 L37.6168486,9.60564201 L37.6168486,6.06338656 L38.6492935,6.06338656 L38.6492935,5.26481045 L37.6168486,5.26481045 L37.6168486,3.14858376 L36.595812,3.76462819 L36.595812,5.26481045 L35.8428688,5.26481045 L35.8428688,6.06338656 L36.595812,6.06338656 L36.595812,9.54860086 C36.595812,10.1646453 36.6376422,10.5686868 36.7213026,10.7607253 C36.8049629,10.9527639 36.9494672,11.1077256 37.1548153,11.2256107 C37.3601635,11.3434957 37.6491719,11.4024383 38.0218408,11.4024383 Z M41.6634181,11.4594794 C42.0665089,11.4594794 42.4439311,11.3929314 42.7956849,11.2598354 C43.1474387,11.1267394 43.5134527,10.8985748 43.893727,10.5753416 C43.924149,10.8605473 43.9925984,11.109627 44.0990752,11.3225806 L44.0990752,11.3225806 L45.1714488,11.3225806 C45.0421555,11.0906133 44.9556431,10.8481884 44.9119116,10.595306 C44.86818,10.3424235 44.8463143,9.73873803 44.8463143,8.78424944 L44.8463143,7.41526183 C44.8463143,6.95893262 44.8292019,6.64330492 44.7949772,6.46837873 C44.7341333,6.18697572 44.6276565,5.95405768 44.4755468,5.76962463 C44.323437,5.58519158 44.0857656,5.43213116 43.7625324,5.31044337 C43.4392992,5.18875558 43.0190961,5.12791169 42.501923,5.12791169 C41.9809471,5.12791169 41.5227166,5.19921312 41.1272312,5.341816 C40.7317459,5.48441888 40.4294278,5.68786565 40.2202769,5.95215631 C40.0111261,6.21644698 39.8609177,6.56344731 39.7696519,6.99315731 L39.7696519,6.99315731 L40.7735761,7.13005607 C40.8838557,6.70034607 41.0540284,6.40088003 41.2840944,6.23165795 C41.5141604,6.06243587 41.8706676,5.97782483 42.353616,5.97782483 C42.8707891,5.97782483 43.2605703,6.0938085 43.5229596,6.32577585 C43.7168995,6.4968993 43.8138694,6.79161191 43.8138694,7.20991368 C43.8138694,7.24794112 43.8119681,7.33730559 43.8081653,7.47800709 C43.4164828,7.61490585 42.8061424,7.7327909 41.9771444,7.83166223 C41.5702508,7.88109789 41.2660314,7.93243493 41.064486,7.98567333 C40.7906885,8.0617282 40.5444608,8.17390913 40.3258031,8.32221612 C40.1071453,8.47052311 39.9303178,8.66731508 39.7953204,8.91259203 C39.660323,9.15786898 39.5928243,9.42881444 39.5928243,9.72542843 C39.5928243,10.2311933 39.7715532,10.646643 40.1290111,10.9717776 C40.486469,11.2969121 40.997938,11.4594794 41.6634181,11.4594794 Z M41.908695,10.6551992 C41.509407,10.6551992 41.2061382,10.5639333 40.9988887,10.3814017 C40.7916391,10.19887 40.6880144,9.97070538 40.6880144,9.69690785 C40.6880144,9.51817891 40.7355487,9.35561163 40.8306173,9.20920601 C40.9256858,9.06280039 41.0606832,8.95157015 41.2356094,8.87551528 C41.4105356,8.79946042 41.709051,8.73101103 42.1311555,8.67016714 C42.8764932,8.56369033 43.4354965,8.43439705 43.8081653,8.28228732 L43.8081653,8.28228732 L43.8081653,8.65875891 C43.8081653,9.11128537 43.7530255,9.45353228 43.642746,9.68549962 C43.4982417,9.98591635 43.2719785,10.2226371 42.9639563,10.3956619 C42.6559341,10.5686868 42.3041803,10.6551992 41.908695,10.6551992 Z M47.7292442,11.3225806 L47.7292442,2.96034796 L46.7025035,2.96034796 L46.7025035,11.3225806 L47.7292442,11.3225806 Z M50.2242944,13.7810542 C50.5513303,13.7810542 50.8327333,13.7021473 51.0685034,13.5443335 C51.3042735,13.3865196 51.5134244,13.1383906 51.695956,12.7999464 C51.8328548,12.5489654 52.0248933,12.0907348 52.2720717,11.4252547 L52.2720717,11.4252547 L54.5765341,5.26481045 L53.5497934,5.26481045 L52.2549593,8.79565767 C52.0914414,9.24438139 51.9507398,9.70451334 51.8328548,10.1760535 C51.7035615,9.68549962 51.5571559,9.21776219 51.3936379,8.77284121 L51.3936379,8.77284121 L50.1330285,5.26481045 L49.0264302,5.26481045 L51.3251886,11.3339889 C51.2833584,11.4442684 51.2529364,11.5279288 51.2339227,11.5849699 C51.0894185,11.9918635 50.984843,12.2466473 50.9201964,12.3493214 C50.8327333,12.4862201 50.7205524,12.5926969 50.5836536,12.6687518 C50.4467548,12.7448067 50.2642232,12.7828341 50.0360586,12.7828341 C49.8687378,12.7828341 49.6728966,12.7524122 49.4485347,12.6915683 L49.4485347,12.6915683 L49.562617,13.6555637 C49.8059926,13.7392241 50.0265517,13.7810542 50.2242944,13.7810542 Z M57.9157933,11.4594794 C58.3911362,11.4594794 58.8170435,11.3767697 59.1935151,11.2113504 C59.5699867,11.0459311 59.8580445,10.8120623 60.0576885,10.5097442 C60.2573325,10.2074262 60.3571546,9.88514365 60.3571546,9.54289675 C60.3571546,9.19304435 60.2753956,8.90023311 60.1118776,8.66446303 C59.9483596,8.42869294 59.7230471,8.24901331 59.43594,8.12542415 C59.1488329,8.00183499 58.6421173,7.84307046 57.9157933,7.64913054 L57.9157933,7.64913054 L57.7991556,7.61722401 C57.366738,7.49855408 57.1032992,7.42172649 57.008839,7.38674125 C56.8301101,7.31448913 56.6989154,7.22322329 56.6152551,7.11294373 C56.5315947,7.00646691 56.4897645,6.8866805 56.4897645,6.75358448 C56.4897645,6.54443359 56.5905372,6.36190191 56.7920826,6.20598943 C56.993628,6.05007695 57.3301708,5.97212072 57.801711,5.97212072 C58.2009991,5.97212072 58.509972,6.05958381 58.7286297,6.23451001 C58.9472875,6.4094362 59.0794328,6.65281178 59.1250657,6.96463674 L59.1250657,6.96463674 L60.12899,6.82773798 C60.0643433,6.43605541 59.9464583,6.12327976 59.7753348,5.88941105 C59.6042114,5.65554233 59.33897,5.47015859 58.9796108,5.33325983 C58.6202515,5.19636107 58.2029004,5.12791169 57.7275575,5.12791169 C57.4119298,5.12791169 57.1162665,5.16879118 56.8405676,5.25055016 C56.5648687,5.33230914 56.3471617,5.43213116 56.1874464,5.5500162 C55.9744928,5.70212594 55.8062214,5.89321379 55.6826323,6.12327976 C55.5590431,6.35334574 55.4972485,6.60337612 55.4972485,6.8733709 C55.4972485,7.16998488 55.5723527,7.44093034 55.7225611,7.68620729 C55.8727694,7.93148424 56.0933285,8.12352278 56.3842384,8.26232291 C56.6751483,8.40112305 57.1970748,8.5655917 57.950018,8.75572887 C58.5090213,8.89643037 58.8588737,9.01241404 58.9995752,9.10367989 C59.2011206,9.2367759 59.3018933,9.41930759 59.3018933,9.65127493 C59.3018933,9.90986148 59.187811,10.135174 58.9596464,10.3272126 C58.7314818,10.5192511 58.3816294,10.6152704 57.9100892,10.6152704 C57.4423518,10.6152704 57.0782391,10.5068922 56.8177512,10.2901358 C56.5572632,10.0733794 56.3984987,9.76155449 56.3414576,9.35466095 L56.3414576,9.35466095 L55.3261251,9.51437617 C55.4402074,10.1570398 55.7035474,10.6418896 56.116145,10.9689255 C56.5287427,11.2959614 57.1286254,11.4594794 57.9157933,11.4594794 Z M63.4796573,11.4024383 C63.707822,11.4024383 63.9664085,11.3720163 64.255417,11.3111724 L64.255417,11.3111724 L64.10711,10.4042181 C63.9207756,10.4308373 63.7705672,10.4441469 63.6564849,10.4441469 C63.5043752,10.4441469 63.3874408,10.4194291 63.3056818,10.3699934 C63.2239229,10.3205578 63.1649803,10.2540098 63.1288543,10.1703494 C63.0927282,10.086689 63.0746652,9.89845325 63.0746652,9.60564201 L63.0746652,9.60564201 L63.0746652,6.06338656 L64.10711,6.06338656 L64.10711,5.26481045 L63.0746652,5.26481045 L63.0746652,3.14858376 L62.0536286,3.76462819 L62.0536286,5.26481045 L61.3006854,5.26481045 L61.3006854,6.06338656 L62.0536286,6.06338656 L62.0536286,9.54860086 C62.0536286,10.1646453 62.0954588,10.5686868 62.1791191,10.7607253 C62.2627795,10.9527639 62.4072837,11.1077256 62.6126319,11.2256107 C62.81798,11.3434957 63.1069885,11.4024383 63.4796573,11.4024383 Z M70.1981045,11.3225806 L70.1981045,6.06338656 L71.3788563,6.06338656 L71.3788563,5.26481045 L70.1981045,5.26481045 L70.1981045,4.70580717 C70.1981045,4.34074381 70.2627511,4.09166412 70.3920444,3.9585681 C70.5213377,3.82547208 70.7418968,3.75892407 71.0537217,3.75892407 C71.2438589,3.75892407 71.4454043,3.77793779 71.6583579,3.81596522 L71.6583579,3.81596522 L71.812369,2.92041916 C71.4625167,2.85196978 71.1430862,2.81774509 70.8540777,2.81774509 C70.405354,2.81774509 70.0564523,2.90045475 69.8073726,3.06587409 C69.5582929,3.23129343 69.3843174,3.44709911 69.2854461,3.71329115 C69.2131939,3.91103381 69.1770679,4.2133519 69.1770679,4.62024545 L69.1770679,4.62024545 L69.1770679,5.26481045 L68.2701136,5.26481045 L68.2701136,6.06338656 L69.1770679,6.06338656 L69.1770679,11.3225806 L70.1981045,11.3225806 Z M74.9234636,11.4594794 C75.4520449,11.4594794 75.9397468,11.3358902 76.3865691,11.0887119 C76.8333915,10.8415336 77.173737,10.4945333 77.4076057,10.0477109 C77.6414744,9.60088858 77.7584088,8.98769621 77.7584088,8.20813382 C77.7584088,7.24603975 77.4941181,6.49214587 76.9655368,5.9464522 C76.4369555,5.40075852 75.7562644,5.12791169 74.9234636,5.12791169 C74.1743232,5.12791169 73.539265,5.35227355 73.0182892,5.80099726 C72.3946393,6.34098682 72.0828143,7.17188625 72.0828143,8.29369555 C72.0828143,9.31663351 72.3442529,10.0999986 72.8671301,10.643791 C73.3900073,11.1875833 74.0754518,11.4594794 74.9234636,11.4594794 Z M74.9234636,10.6152704 C74.4100932,10.6152704 73.984186,10.4222812 73.6457418,10.0363027 C73.3072977,9.65032425 73.1380756,9.0694552 73.1380756,8.29369555 C73.1380756,7.5179359 73.3072977,6.93801753 73.6457418,6.55394045 C73.984186,6.16986337 74.4100932,5.97782483 74.9234636,5.97782483 C75.4292285,5.97782483 75.8522837,6.17081406 76.1926292,6.55679251 C76.5329747,6.94277096 76.7031475,7.51033041 76.7031475,8.25947086 C76.7031475,9.05424422 76.5339254,9.64557082 76.1954813,10.0334506 C75.8570371,10.4213305 75.4330312,10.6152704 74.9234636,10.6152704 Z M80.2648672,11.3225806 L80.2648672,8.15109267 C80.2648672,7.71757993 80.3219083,7.31829187 80.4359906,6.95322851 C80.5120455,6.71365567 80.6394374,6.52637056 80.8181663,6.39137317 C80.9968953,6.25637578 81.1984407,6.18887709 81.4228025,6.18887709 C81.6737836,6.18887709 81.9247646,6.26303058 82.1757457,6.41133758 L82.1757457,6.41133758 L82.5294008,5.45875036 C82.171943,5.23819124 81.8201892,5.12791169 81.4741395,5.12791169 C81.2345667,5.12791169 81.0149583,5.19636107 80.8153143,5.33325983 C80.6156702,5.47015859 80.3979632,5.75346297 80.1621931,6.18317297 L80.1621931,6.18317297 L80.1621931,5.26481045 L79.2381264,5.26481045 L79.2381264,11.3225806 L80.2648672,11.3225806 Z M89.1394698,11.4594794 C89.6148127,11.4594794 90.04072,11.3767697 90.4171916,11.2113504 C90.7936631,11.0459311 91.081721,10.8120623 91.281365,10.5097442 C91.481009,10.2074262 91.580831,9.88514365 91.580831,9.54289675 C91.580831,9.19304435 91.499072,8.90023311 91.3355541,8.66446303 C91.1720361,8.42869294 90.9467236,8.24901331 90.6596164,8.12542415 C90.3725093,8.00183499 89.8657938,7.84307046 89.1394698,7.64913054 L89.1394698,7.64913054 L89.022832,7.61722401 C88.5904145,7.49855408 88.3269756,7.42172649 88.2325155,7.38674125 C88.0537865,7.31448913 87.9225919,7.22322329 87.8389315,7.11294373 C87.7552712,7.00646691 87.713441,6.8866805 87.713441,6.75358448 C87.713441,6.54443359 87.8142137,6.36190191 88.0157591,6.20598943 C88.2173045,6.05007695 88.5538473,5.97212072 89.0253875,5.97212072 C89.4246755,5.97212072 89.7336484,6.05958381 89.9523062,6.23451001 C90.1709639,6.4094362 90.3031092,6.65281178 90.3487422,6.96463674 L90.3487422,6.96463674 L91.3526664,6.82773798 C91.2880198,6.43605541 91.1701347,6.12327976 90.9990113,5.88941105 C90.8278878,5.65554233 90.5626465,5.47015859 90.2032872,5.33325983 C89.843928,5.19636107 89.4265769,5.12791169 88.951234,5.12791169 C88.6356063,5.12791169 88.339943,5.16879118 88.0642441,5.25055016 C87.7885452,5.33230914 87.5708381,5.43213116 87.4111229,5.5500162 C87.1981693,5.70212594 87.0298979,5.89321379 86.9063087,6.12327976 C86.7827196,6.35334574 86.720925,6.60337612 86.720925,6.8733709 C86.720925,7.16998488 86.7960292,7.44093034 86.9462375,7.68620729 C87.0964459,7.93148424 87.317005,8.12352278 87.6079149,8.26232291 C87.8988247,8.40112305 88.4207513,8.5655917 89.1736945,8.75572887 C89.7326977,8.89643037 90.0825501,9.01241404 90.2232516,9.10367989 C90.424797,9.2367759 90.5255697,9.41930759 90.5255697,9.65127493 C90.5255697,9.90986148 90.4114874,10.135174 90.1833228,10.3272126 C89.9551582,10.5192511 89.6053058,10.6152704 89.1337657,10.6152704 C88.6660282,10.6152704 88.3019155,10.5068922 88.0414276,10.2901358 C87.7809397,10.0733794 87.6221752,9.76155449 87.565134,9.35466095 L87.565134,9.35466095 L86.5498015,9.51437617 C86.6638838,10.1570398 86.9272238,10.6418896 87.3398215,10.9689255 C87.7524191,11.2959614 88.3523019,11.4594794 89.1394698,11.4594794 Z M95.1368466,11.4594794 C95.9468309,11.4594794 96.5875932,11.1172325 97.0591333,10.4327387 L97.0591333,10.4327387 L97.0591333,11.3225806 L97.9774959,11.3225806 L97.9774959,5.26481045 L96.9507551,5.26481045 L96.9507551,8.51045192 C96.9507551,9.02762502 96.8946647,9.42215964 96.7824838,9.69405579 C96.6703028,9.96595195 96.479215,10.1808069 96.2092202,10.3386208 C95.9392254,10.4964346 95.6502169,10.5753416 95.3421947,10.5753416 C95.0341725,10.5753416 94.7755859,10.498336 94.5664351,10.3443249 C94.3572842,10.1903138 94.2203854,9.97831086 94.1557388,9.70831608 C94.1139086,9.52198166 94.0929935,9.16072104 94.0929935,8.62453422 L94.0929935,5.26481045 L93.0662528,5.26481045 L93.0662528,9.01811816 C93.0662528,9.45543365 93.0871679,9.77486409 93.1289981,9.97640949 C93.1898419,10.2768262 93.2953681,10.5306593 93.4455764,10.7379089 C93.5957848,10.9451584 93.8258508,11.1172325 94.1357744,11.2541313 C94.4456979,11.39103 94.7793887,11.4594794 95.1368466,11.4594794 Z M102.314975,11.4594794 C102.976653,11.4594794 103.534705,11.2626874 103.989133,10.8691035 C104.443561,10.4755196 104.725914,9.93077657 104.836194,9.23487453 L104.836194,9.23487453 L103.826566,9.10367989 C103.754314,9.61705024 103.58319,9.99732458 103.313195,10.2445029 C103.043201,10.4916812 102.706658,10.6152704 102.303567,10.6152704 C101.801605,10.6152704 101.394711,10.4308373 101.082886,10.0619712 C100.771061,9.69310511 100.615149,9.10177851 100.615149,8.28799143 C100.615149,7.48561258 100.776765,6.89903941 101.099999,6.52827193 C101.423232,6.15750446 101.843435,5.97212072 102.360608,5.97212072 C102.702855,5.97212072 102.994716,6.07479479 103.23619,6.28014293 C103.477664,6.48549107 103.645935,6.79161191 103.741004,7.19850545 L103.741004,7.19850545 L104.739224,7.04449435 C104.621339,6.43225266 104.353246,5.9597618 103.934944,5.62702175 C103.516642,5.29428171 102.978554,5.12791169 102.320679,5.12791169 C101.799703,5.12791169 101.317706,5.25055016 100.874686,5.49582711 C100.431667,5.74110406 100.101779,6.10901948 99.8850221,6.59957337 C99.6682658,7.09012727 99.5598876,7.66244015 99.5598876,8.31651201 C99.5598876,9.32804174 99.8118193,10.1047521 100.315683,10.646643 C100.819546,11.1885339 101.485977,11.4594794 102.314975,11.4594794 Z M108.443547,11.4594794 C109.105224,11.4594794 109.663277,11.2626874 110.117704,10.8691035 C110.572132,10.4755196 110.854486,9.93077657 110.964765,9.23487453 L110.964765,9.23487453 L109.955137,9.10367989 C109.882885,9.61705024 109.711762,9.99732458 109.441767,10.2445029 C109.171772,10.4916812 108.835229,10.6152704 108.432138,10.6152704 C107.930176,10.6152704 107.523283,10.4308373 107.211458,10.0619712 C106.899633,9.69310511 106.74372,9.10177851 106.74372,8.28799143 C106.74372,7.48561258 106.905337,6.89903941 107.22857,6.52827193 C107.551803,6.15750446 107.972006,5.97212072 108.48918,5.97212072 C108.831426,5.97212072 109.123287,6.07479479 109.364761,6.28014293 C109.606235,6.48549107 109.774507,6.79161191 109.869575,7.19850545 L109.869575,7.19850545 L110.867795,7.04449435 C110.74991,6.43225266 110.481817,5.9597618 110.063515,5.62702175 C109.645213,5.29428171 109.107125,5.12791169 108.449251,5.12791169 C107.928275,5.12791169 107.446277,5.25055016 107.003258,5.49582711 C106.560238,5.74110406 106.23035,6.10901948 106.013594,6.59957337 C105.796837,7.09012727 105.688459,7.66244015 105.688459,8.31651201 C105.688459,9.32804174 105.940391,10.1047521 106.444254,10.646643 C106.948118,11.1885339 107.614549,11.4594794 108.443547,11.4594794 Z M114.674792,11.4594794 C115.3783,11.4594794 115.956317,11.288356 116.408843,10.9461091 C116.86137,10.6038621 117.171293,10.1228151 117.338614,9.50296794 L117.338614,9.50296794 L116.277648,9.37177329 C116.121736,9.80528604 115.910684,10.1209137 115.644492,10.3186564 C115.3783,10.516399 115.056968,10.6152704 114.680496,10.6152704 C114.174731,10.6152704 113.752627,10.4384428 113.414183,10.0847877 C113.075738,9.73113254 112.887503,9.22156493 112.849475,8.55608484 L112.849475,8.55608484 L117.367134,8.55608484 C117.370937,8.43439705 117.372839,8.34313121 117.372839,8.28228732 C117.372839,7.28216581 117.116153,6.50640616 116.602783,5.95500837 C116.089413,5.40361058 115.427735,5.12791169 114.617751,5.12791169 C113.781147,5.12791169 113.100456,5.4093147 112.575678,5.97212072 C112.050899,6.53492674 111.78851,7.32589736 111.78851,8.34503258 C111.78851,9.32994312 112.048047,10.0952452 112.567122,10.6409389 C113.086196,11.1866326 113.788753,11.4594794 114.674792,11.4594794 Z M116.289057,7.71187581 L112.906516,7.71187581 C112.940741,7.18329448 113.118519,6.76118997 113.439851,6.44556227 C113.761183,6.12993457 114.157619,5.97212072 114.629159,5.97212072 C115.150135,5.97212072 115.574141,6.16986337 115.901177,6.56534868 C116.11413,6.82013249 116.243424,7.2023082 116.289057,7.71187581 L116.289057,7.71187581 Z M121.094273,11.4594794 C121.569616,11.4594794 121.995524,11.3767697 122.371995,11.2113504 C122.748467,11.0459311 123.036525,10.8120623 123.236169,10.5097442 C123.435813,10.2074262 123.535635,9.88514365 123.535635,9.54289675 C123.535635,9.19304435 123.453876,8.90023311 123.290358,8.66446303 C123.12684,8.42869294 122.901527,8.24901331 122.61442,8.12542415 C122.327313,8.00183499 121.820597,7.84307046 121.094273,7.64913054 C120.592311,7.51223178 120.289993,7.42476869 120.187319,7.38674125 C120.00859,7.31448913 119.877396,7.22322329 119.793735,7.11294373 C119.710075,7.00646691 119.668245,6.8866805 119.668245,6.75358448 C119.668245,6.54443359 119.769017,6.36190191 119.970563,6.20598943 C120.172108,6.05007695 120.508651,5.97212072 120.980191,5.97212072 C121.379479,5.97212072 121.688452,6.05958381 121.90711,6.23451001 C122.125768,6.4094362 122.257913,6.65281178 122.303546,6.96463674 L122.303546,6.96463674 L123.30747,6.82773798 C123.242823,6.43605541 123.124938,6.12327976 122.953815,5.88941105 C122.782691,5.65554233 122.51745,5.47015859 122.158091,5.33325983 C121.798732,5.19636107 121.381381,5.12791169 120.906038,5.12791169 C120.59041,5.12791169 120.294747,5.16879118 120.019048,5.25055016 C119.743349,5.33230914 119.525642,5.43213116 119.365927,5.5500162 C119.152973,5.70212594 118.984701,5.89321379 118.861112,6.12327976 C118.737523,6.35334574 118.675729,6.60337612 118.675729,6.8733709 C118.675729,7.16998488 118.750833,7.44093034 118.901041,7.68620729 C119.05125,7.93148424 119.271809,8.12352278 119.562718,8.26232291 C119.853628,8.40112305 120.375555,8.5655917 121.128498,8.75572887 C121.687501,8.89643037 122.037354,9.01241404 122.178055,9.10367989 C122.379601,9.2367759 122.480373,9.41930759 122.480373,9.65127493 C122.480373,9.90986148 122.366291,10.135174 122.138126,10.3272126 C121.909962,10.5192511 121.560109,10.6152704 121.088569,10.6152704 C120.620832,10.6152704 120.256719,10.5068922 119.996231,10.2901358 C119.735743,10.0733794 119.576979,9.76155449 119.519938,9.35466095 L119.519938,9.35466095 L118.504605,9.51437617 C118.618687,10.1570398 118.882027,10.6418896 119.294625,10.9689255 C119.707223,11.2959614 120.307106,11.4594794 121.094273,11.4594794 Z M127.222845,11.4594794 C127.698188,11.4594794 128.124095,11.3767697 128.500567,11.2113504 C128.877038,11.0459311 129.165096,10.8120623 129.36474,10.5097442 C129.564384,10.2074262 129.664206,9.88514365 129.664206,9.54289675 C129.664206,9.19304435 129.582447,8.90023311 129.418929,8.66446303 C129.255411,8.42869294 129.030099,8.24901331 128.742991,8.12542415 C128.455884,8.00183499 127.949169,7.84307046 127.222845,7.64913054 C126.720883,7.51223178 126.418565,7.42476869 126.315891,7.38674125 C126.137162,7.31448913 126.005967,7.22322329 125.922307,7.11294373 C125.838646,7.00646691 125.796816,6.8866805 125.796816,6.75358448 C125.796816,6.54443359 125.897589,6.36190191 126.099134,6.20598943 C126.30068,6.05007695 126.637222,5.97212072 127.108763,5.97212072 C127.508051,5.97212072 127.817023,6.05958381 128.035681,6.23451001 C128.254339,6.4094362 128.386484,6.65281178 128.432117,6.96463674 L128.432117,6.96463674 L129.436041,6.82773798 C129.371395,6.43605541 129.25351,6.12327976 129.082386,5.88941105 C128.911263,5.65554233 128.646022,5.47015859 128.286662,5.33325983 C127.927303,5.19636107 127.509952,5.12791169 127.034609,5.12791169 C126.718981,5.12791169 126.423318,5.16879118 126.147619,5.25055016 C125.87192,5.33230914 125.654213,5.43213116 125.494498,5.5500162 C125.281544,5.70212594 125.113273,5.89321379 124.989684,6.12327976 C124.866095,6.35334574 124.8043,6.60337612 124.8043,6.8733709 C124.8043,7.16998488 124.879404,7.44093034 125.029613,7.68620729 C125.179821,7.93148424 125.40038,8.12352278 125.69129,8.26232291 C125.9822,8.40112305 126.504126,8.5655917 127.25707,8.75572887 C127.816073,8.89643037 128.165925,9.01241404 128.306627,9.10367989 C128.508172,9.2367759 128.608945,9.41930759 128.608945,9.65127493 C128.608945,9.90986148 128.494862,10.135174 128.266698,10.3272126 C128.038533,10.5192511 127.688681,10.6152704 127.217141,10.6152704 C126.749403,10.6152704 126.385291,10.5068922 126.124803,10.2901358 C125.864315,10.0733794 125.70555,9.76155449 125.648509,9.35466095 L125.648509,9.35466095 L124.633177,9.51437617 C124.747259,10.1570398 125.010599,10.6418896 125.423197,10.9689255 C125.835794,11.2959614 126.435677,11.4594794 127.222845,11.4594794 Z" id="Catalystforsuccess" fill="#FFFFFF" fill-rule="nonzero"></path>
            </g>
        </g>
    </g>
</svg>