<?xml version="1.0" encoding="UTF-8"?>
<svg width="88px" height="38px" viewBox="0 0 88 38" version="1.1" xmlns="http://www.w3.org/2000/svg" xmlns:xlink="http://www.w3.org/1999/xlink">
    <title>公司logo</title>
    <defs>
        <polygon id="path-1" points="0 0 1.91047398 0 1.91047398 1.94225638 0 1.94225638"></polygon>
        <polygon id="path-3" points="0 0 1.32087527 0 1.32087527 1.34103825 0 1.34103825"></polygon>
    </defs>
    <g id="页面3" stroke="none" stroke-width="1" fill="none" fill-rule="evenodd">
        <g id="登录" transform="translate(-571.000000, -579.000000)">
            <g id="编组-17" transform="translate(571.000000, 579.000000)">
                <g id="编组-16">
                    <path d="M15.8081554,13.6605859 C14.4501226,13.663658 13.34676,14.7893563 13.3452572,16.1732985 C13.3436329,17.5803575 14.4393654,18.6954553 15.8236658,18.695583 C17.2145957,18.6957107 18.2955683,17.5918521 18.2943185,16.1727876 C18.2930666,14.7631743 17.19871,13.6573998 15.8081554,13.6605859" id="Fill-1" fill="#FFFFFF"></path>
                    <path d="M19.8827794,9.64237038 C18.5712776,9.64326496 17.5260789,10.7088085 17.5252029,12.0454954 C17.5244528,13.3848644 18.5655238,14.4532177 19.8753994,14.4573162 C21.1982838,14.4613916 22.2629956,13.3792448 22.2567688,12.0369384 C22.2506123,10.7079145 21.1934055,9.64147692 19.8827794,9.64237038" id="Fill-3" fill="#FFFFFF"></path>
                    <path d="M15.8163359,10.292681 C17.1419721,10.2920422 18.1744123,9.24041976 18.1740372,7.89108887 C18.1736618,6.54520633 17.1362183,5.49166818 15.8118329,5.49205123 C14.4899492,5.49243448 13.4542568,6.54865469 13.4545069,7.89606983 C13.4547572,9.2437404 14.4890736,10.2933193 15.8163359,10.292681" id="Fill-5" fill="#FFFFFF"></path>
                    <path d="M19.8399007,18.51122 C18.8831361,18.5093077 18.0958598,19.3086888 18.0939797,20.2840641 C18.0919822,21.2683796 18.8632478,22.0661005 19.8213883,22.0705892 C20.7965402,22.0750407 21.5916968,21.2724666 21.5888277,20.286363 C21.585943,19.3246535 20.7865335,18.5131392 19.8399007,18.51122" id="Fill-7" fill="#FEFEFE"></path>
                    <path d="M11.7426876,18.5134585 C10.7871739,18.5032411 9.97087815,19.328932 9.97399628,20.3025192 C9.97700725,21.2738076 10.7650341,22.0702513 11.7240502,22.0710183 C12.6905713,22.0719116 13.4658396,21.2864516 13.4670916,20.3050736 C13.4682162,19.3179483 12.7038302,18.5238035 11.7426876,18.5134585" id="Fill-9" fill="#FEFEFE"></path>
                    <path d="M15.8547491,22.6492877 C14.8907296,22.6447099 14.0993256,23.4334906 14.0939169,24.4043958 C14.0883182,25.3998226 14.873343,26.2103152 15.8416153,26.2085301 C16.7903746,26.2068668 17.5869071,25.3980346 17.5896661,24.4333875 C17.5924107,23.459034 16.8095124,22.6539055 15.8547491,22.6492877" id="Fill-11" fill="#FEFEFE"></path>
                    <path d="M3.64695053,18.5328587 C2.67542605,18.5267283 1.90353504,19.3097617 1.90290937,20.3021233 C1.90240928,21.3032975 2.65466217,22.0721543 3.63544284,22.0726654 C4.6108449,22.073176 5.39049111,21.2934633 5.39375255,20.3145119 C5.39687037,19.3430958 4.60846831,18.5388614 3.64695053,18.5328587" id="Fill-13" fill="#FEFEFE"></path>
                    <path d="M7.74740423,22.6476215 C6.77350317,22.6483882 6.01011783,23.4301444 6.011866,24.4250604 C6.01362017,25.409759 6.7938918,26.206075 7.75428383,26.2032726 C8.71104844,26.2003277 9.49682374,25.3941775 9.49544962,24.4168865 C9.49394681,23.4314215 8.71892871,22.6469833 7.74740423,22.6476215" id="Fill-15" fill="#FEFEFE"></path>
                    <path d="M11.6996964,13.8270337 C12.6435774,13.8446586 13.4469895,13.0604758 13.4641259,12.1048966 C13.4817627,11.1195594 12.7197533,10.3118766 11.7558589,10.2941239 C10.8083505,10.2768821 10.0180722,11.0476547 9.99067888,12.0158778 C9.96328557,12.9889542 10.7370528,13.8090256 11.6996964,13.8270337" id="Fill-17" fill="#FEFEFE"></path>
                    <path d="M7.75649781,9.64436358 C8.72677145,9.64385246 9.48090059,8.87818859 9.48265527,7.89182962 C9.48452802,6.90419349 8.73252529,6.13061116 7.76738008,6.12727986 C6.78347233,6.12396988 6.02171309,6.89716905 6.02445749,7.89629972 C6.02709168,8.87729457 6.78772517,9.64487419 7.75649781,9.64436358" id="Fill-19" fill="#FEFEFE"></path>
                    <path d="M7.71973573,17.9820149 C8.68463078,17.9906997 9.46765424,17.2002587 9.46815482,16.216965 C9.46865491,15.238269 8.71452576,14.463665 7.75263273,14.4551079 C6.77673032,14.4462954 6.00508947,15.2235816 6.00508947,16.2153046 C6.00496439,17.1908077 6.76447213,17.9734579 7.71973573,17.9820149" id="Fill-21" fill="#FEFEFE"></path>
                    <path d="M3.63271601,4.71935033 C4.15168795,4.71665543 4.58422711,4.27781956 4.58948062,3.74881544 C4.59485922,3.20678417 4.15293879,2.75415486 3.62183374,2.75758365 C3.1051133,2.76105158 2.66844639,3.20244179 2.66194204,3.72786984 C2.65543769,4.26338753 3.10448789,4.72214726 3.63271601,4.71935033" id="Fill-23" fill="#FEFEFE"></path>
                    <path d="M23.6602046,6.91460243 C23.1358541,6.92328719 22.7164487,7.35688666 22.7149429,7.89189348 C22.7133216,8.43085954 23.1262226,8.86228782 23.6531999,8.87199432 C24.1893083,8.88195625 24.6337304,8.44171549 24.6361154,7.89815162 C24.6383585,7.36059045 24.1871819,6.90578995 23.6602046,6.91460243" id="Fill-25" fill="#FEFEFE"></path>
                    <path d="M19.8612775,4.79810061 C20.4063919,4.80410331 20.8399317,4.37331362 20.8400568,3.8256628 C20.8401819,3.29091141 20.421527,2.86101574 19.8920481,2.85258641 C19.3518119,2.84377393 18.9120179,3.28069404 18.9120179,3.82604595 C18.912143,4.35875387 19.335426,4.79235334 19.8612775,4.79810061" id="Fill-27" fill="#FEFEFE"></path>
                    <path d="M23.683958,15.1909498 C23.1478496,15.1814988 22.7126837,15.6207178 22.7125586,16.1713061 C22.7124335,16.707207 23.1293372,17.1415727 23.654063,17.1519178 C24.1824162,17.1623906 24.6324671,16.7106553 24.6320921,16.1704121 C24.6315915,15.6403862 24.2054316,15.2001455 23.683958,15.1909498" id="Fill-29" fill="#FEFEFE"></path>
                    <path d="M3.60975066,13.0475764 C4.14798548,13.0548562 4.58802965,12.6138492 4.58603511,12.0691358 C4.58390189,11.5361725 4.16024367,11.1051274 3.63376672,11.1002741 C3.09077872,11.0952932 2.65598806,11.5301698 2.65798252,12.0764157 C2.65974057,12.6082296 3.08352387,13.0404242 3.60975066,13.0475764" id="Fill-31" fill="#FEFEFE"></path>
                    <path d="M11.733469,4.75007899 C12.2626978,4.74586432 12.6816028,4.32133277 12.6857306,3.78479334 C12.6898583,3.23599307 12.2608215,2.80328762 11.7162074,2.80711913 C11.1700923,2.81095064 10.7595679,3.24250664 10.7693244,3.80267373 C10.7787057,4.34023489 11.1999873,4.75429365 11.733469,4.75007899" id="Fill-33" fill="#FEFEFE"></path>
                    <path d="M15.8309957,1.94616556 C16.3656031,1.95012479 16.7875101,1.53070191 16.7937643,0.989309233 C16.8000185,0.441275265 16.3947476,0.0120181767 15.8621415,0.0025671132 C15.3107729,-0.00726710155 14.8829869,0.416753587 14.8826116,0.973600033 C14.8823615,1.51678075 15.2972639,1.94233404 15.8309957,1.94616556" id="Fill-35" fill="#FEFEFE"></path>
                    <g id="编组" transform="translate(6.761111, 0.000000)">
                        <mask id="mask-2" fill="white">
                            <use xlink:href="#path-1"></use>
                        </mask>
                        <g id="Clip-38"></g>
                        <path d="M0.962715282,1.94223187 C1.49819826,1.93852808 1.91072404,1.51578456 1.91047398,0.9708158 C1.9102237,0.425208457 1.49857351,0.00310352492 0.963215617,-0.000107071949 C0.413473108,-0.00328232882 -0.00630752066,0.426613345 7.17439524e-05,0.986525001 C0.00620084133,1.52945029 0.425731302,1.94593567 0.962715282,1.94223187" id="Fill-37" fill="#FEFEFE" mask="url(#mask-2)"></path>
                    </g>
                    <path d="M0.660028737,15.5081224 C0.298537076,15.5115708 0.0119705024,15.808513 0.0113440286,16.1799142 C0.0107196662,16.5575736 0.288030051,16.8446816 0.657401981,16.8486408 C1.01901873,16.8524724 1.32072042,16.5611497 1.33060202,16.1984332 C1.3407338,15.8269043 1.0276495,15.5046741 0.660028737,15.5081224" id="Fill-39" fill="#FEFEFE"></path>
                    <g id="编组" transform="translate(0.000000, 7.231710)">
                        <mask id="mask-4" fill="white">
                            <use xlink:href="#path-3"></use>
                        </mask>
                        <g id="Clip-42"></g>
                        <path d="M0.653186663,1.34103825 C1.01705491,1.34281808 1.31375326,1.05226173 1.32075794,0.687629483 C1.32788771,0.317633117 1.00904956,-0.00740683799 0.646557231,0.000128469419 C0.290068914,0.00740834268 -0.00137591982,0.313290737 -4.85188502e-06,0.678561571 C0.00150100344,1.05123999 0.285565904,1.339242 0.653186663,1.34103825" id="Fill-41" fill="#FEFEFE" mask="url(#mask-4)"></path>
                    </g>
                </g>
                <path d="M84.9577048,12.2341815 C83.6055679,11.9154109 82.3062223,12.1978926 81.0317051,12.6461599 C80.7814162,12.7342723 80.9268747,12.8632719 81.0278178,12.9672917 C82.509488,14.4940351 82.9017244,16.374471 82.7102458,18.3882561 C82.4889232,20.7158407 81.9694107,22.9887434 81.2492658,25.2211318 C80.5190893,27.4850866 79.6078421,29.6760908 78.671892,31.8596383 C78.640794,31.9320918 78.6346496,32.0453082 78.5387222,32.0463024 C78.4409139,32.0475452 78.4362743,31.9338317 78.406681,31.8612539 C78.2936999,31.5839918 78.1854838,31.3047413 78.0717503,31.0277278 C76.6192972,27.4917976 74.8865858,24.0989102 72.7872186,20.8936811 C72.6817612,20.7326181 72.6238286,20.5895752 72.6986895,20.3794228 C73.1329333,19.1598922 73.4373929,17.9061855 73.625862,16.6271262 C73.8659939,14.9974814 72.9484769,13.2379671 71.44248,12.5420157 C69.839678,11.8012003 68.2309824,12.0419249 66.643604,12.6437986 C66.465292,12.711281 66.4995249,12.8010091 66.6082425,12.9188237 C66.8120098,13.1400368 67.0141469,13.3642326 67.1973494,13.6019746 C68.3129909,15.0494292 68.5015853,16.7182213 68.3533682,18.4593425 C68.1952447,20.3187756 67.7572392,22.1293677 67.2860038,23.9266622 C66.6278042,26.4375555 65.6442039,28.8387121 64.6308849,31.2264468 C64.6040504,31.2895795 64.593141,31.3698625 64.4856772,31.3739636 C64.4732631,31.3540793 64.449438,31.3320823 64.4450492,31.3067298 C64.3166445,30.5534866 64.1849795,29.8004921 64.063973,29.0460062 C63.6141803,26.2423162 62.8274505,23.530467 61.8066079,20.8817505 C61.1042691,19.0592278 60.3537786,17.255968 59.4271077,15.5337368 C58.828847,14.4218302 57.9971003,13.4713594 56.8719288,12.8706042 C55.1286841,11.9398935 53.2560316,11.9121797 51.3623126,12.3307448 C50.9873808,12.4136375 50.629252,12.5801688 50.3458587,12.8532054 C49.8772567,13.3045796 49.9529954,13.8860719 50.523293,14.1823483 C50.7335808,14.2915878 50.9643081,14.3657812 51.1911481,14.4396018 C52.094997,14.7331442 52.9232326,15.1237469 53.5375439,15.8950102 C54.1808215,16.7025624 54.5644055,17.6337702 54.9854828,18.5556572 C56.9323693,22.8176139 58.0475092,27.2971797 58.6159259,31.9255051 C58.7694097,33.1758564 58.9215141,34.4279475 59.181333,35.6627642 C59.3335629,36.3856837 59.7093724,36.9356096 60.4904594,37.0690831 C61.7422801,37.2829639 62.8552883,36.9907886 63.7524913,36.0654218 C64.0409003,35.7681511 64.3097477,35.4478892 64.555397,35.1148267 C66.9360257,31.8883463 68.9713159,28.4551931 70.7694837,24.8818555 C71.0637863,24.2967592 71.3322576,23.6989867 71.6150238,23.1023326 C71.722613,23.177396 71.7164686,23.2801731 71.7374096,23.3670427 C72.3899664,26.0675827 72.7534873,28.8078914 72.9029584,31.5792693 C72.9769416,32.9517849 73.0366297,34.3261646 73.2054117,35.6919693 C73.288925,36.367415 73.6651107,36.8226417 74.3250659,36.9977481 C75.255624,37.2446866 76.1652411,37.1477505 77.0341047,36.7274455 C77.7234024,36.3940102 78.1893711,35.8184833 78.6440542,35.2384824 C80.0027117,33.5055634 81.1756588,31.6488644 82.3208936,29.7750153 C84.282326,26.5654365 86.0930333,23.2837771 87.2884262,19.7017401 C87.689691,18.4993597 88.051707,17.2983465 87.9938998,16.0130734 C87.9087564,14.1184699 86.7484743,12.6563506 84.9577048,12.2341815" id="Fill-43" fill="#FEFEFE"></path>
                <path d="M45.2586058,12.9609106 C43.8412969,12.4393234 42.3708846,12.1965308 40.8687613,12.1096207 C38.4463876,11.9695286 36.077369,12.1970361 33.817955,13.1478684 C32.2073596,13.825717 30.8376173,14.8116671 29.9474422,16.3631647 C28.7668339,18.420838 28.6616336,21.3594872 30.8825414,23.4286559 C31.8512392,24.3309803 32.9393569,25.0510207 34.1182035,25.6307164 C35.8638226,26.488954 37.627814,27.3092948 39.3779633,28.1585635 C40.3523238,28.6312637 41.2784885,29.183042 42.0318782,29.9812763 C42.641058,30.6265336 43.001331,31.3705753 42.9001576,32.2861635 C42.7544376,33.6061113 41.9937494,34.4301154 40.8003056,34.9086265 C39.556401,35.4074756 38.2475642,35.4447408 36.9374689,35.4438565 C36.0865551,35.4433513 35.2457083,35.3310502 34.4373276,35.0417708 C33.5329328,34.7182579 32.8744247,34.1523314 32.6651567,33.1726975 C32.5472469,32.6201612 32.6007279,32.066867 32.7284531,31.5187521 C32.8866309,30.8407772 33.1508899,30.202973 33.4469857,29.5767904 C33.5088978,29.4457936 33.5737042,29.3194707 33.3733707,29.2511301 C32.249641,28.8673612 31.1194936,28.5137834 29.9071742,28.6670131 C28.8826045,28.796494 27.9798456,29.1625777 27.3809844,30.0643968 C26.4416068,31.4789604 26.5580066,33.7155069 27.6308979,35.0331809 C28.4989256,36.0992196 29.6688378,36.690916 30.9353932,37.1106869 C32.8949362,37.7599865 34.9338828,37.8879516 36.9628881,38 C39.1544757,37.8889622 41.3211474,37.7112259 43.4021237,36.9809533 C44.9219902,36.4474918 46.3123698,35.7066081 47.4274167,34.5059092 C49.4370431,32.3419983 49.7851099,28.6159786 47.4123162,26.2013168 C46.535354,25.308972 45.5373361,24.5880473 44.4436815,24.0011512 C42.5344735,22.9765463 40.5269864,22.1577214 38.5752453,21.2219216 C37.656505,20.78156 36.7760193,20.2786686 36.019987,19.5822506 C35.2055661,18.8317664 34.8025083,17.9185783 35.0512892,16.8117372 C35.3010769,15.7002222 36.1006489,15.0943777 37.1424584,14.8119197 C38.3624539,14.4812064 39.6019542,14.4276455 40.8401961,14.7399157 C42.2085541,15.0849035 43.1304404,15.9065075 43.5273321,17.2859533 C43.6517855,17.7189881 43.7805174,18.1508861 43.9154153,18.5807628 C44.235672,19.601578 44.8901533,20.221697 45.9874571,20.3084808 C47.3432314,20.4156026 48.8542892,19.8926259 49.1284893,18.0263317 C49.3118347,16.7788933 48.9695565,15.675084 48.1046747,14.7502742 C47.3137854,13.9044162 46.3327555,13.3561749 45.2586058,12.9609106" id="Fill-45" fill="#FEFEFE"></path>
            </g>
        </g>
    </g>
</svg>