<?xml version="1.0" encoding="UTF-8"?>
<svg width="68px" height="29px" viewBox="0 0 68 29" version="1.1" xmlns="http://www.w3.org/2000/svg" xmlns:xlink="http://www.w3.org/1999/xlink">
    <title>编组 17</title>
    <defs>
        <polygon id="path-1" points="0 0 1.48732504 0 1.48732504 1.45382057 0 1.45382057"></polygon>
        <polygon id="path-3" points="0 0 1.02831595 0 1.02831595 1.0037959 0 1.0037959"></polygon>
    </defs>
    <g id="页面3" stroke="none" stroke-width="1" fill="none" fill-rule="evenodd">
        <g id="登录" transform="translate(-406.000000, -719.000000)">
            <g id="底部" transform="translate(0.000000, 699.000000)">
                <g id="编组-17" transform="translate(406.000000, 20.000000)">
                    <g id="编组-16">
                        <path d="M12.3068231,10.2252416 C11.2495796,10.2275411 10.3905996,11.0701505 10.3894297,12.1060609 C10.3881652,13.1592748 11.241205,13.9939494 12.3188981,13.994045 C13.4017523,13.9941406 14.2433014,13.1678787 14.2423285,12.1056785 C14.2413538,11.0505527 13.3893852,10.2228568 12.3068231,10.2252416" id="Fill-1" fill="#606266"></path>
                        <path d="M15.4789627,7.21752109 C14.4579442,7.2181907 13.6442454,8.01577291 13.6435635,9.01631174 C13.6429795,10.0188581 14.4534647,10.8185435 15.4732174,10.8216113 C16.5030974,10.8246619 17.3319872,10.0146518 17.3271396,9.00990661 C17.3223467,8.01510372 16.4992996,7.21685232 15.4789627,7.21752109" id="Fill-3" fill="#606266"></path>
                        <path d="M12.3131917,7.70429257 C13.3452141,7.70381435 14.1489801,6.91665243 14.1486881,5.90664931 C14.1483959,4.89922736 13.3407346,4.11063145 12.3096861,4.11091817 C11.280585,4.11120504 10.4742871,4.90180853 10.4744818,5.91037767 C10.4746766,6.919138 11.2799034,7.70477034 12.3131917,7.70429257" id="Fill-5" fill="#606266"></path>
                        <path d="M15.4455812,13.8560453 C14.7007294,13.8546139 14.0878261,14.4529678 14.0863624,15.1830572 C14.0848074,15.9198384 14.6852462,16.5169496 15.4311691,16.5203095 C16.1903356,16.5236415 16.8093738,15.9228976 16.8071401,15.1847779 C16.8048943,14.4649177 16.1825453,13.8574818 15.4455812,13.8560453" id="Fill-7" fill="#606266"></path>
                        <path d="M9.14181164,13.8577208 C8.39793365,13.8500729 7.76243845,14.4681203 7.76486596,15.1968712 C7.76721002,15.9239014 8.38069757,16.5200566 9.12730218,16.5206307 C9.87974952,16.5212994 10.4833044,15.9333657 10.4842792,15.1987832 C10.4851546,14.4598988 9.89007169,13.8654644 9.14181164,13.8577208" id="Fill-9" fill="#606266"></path>
                        <path d="M12.3430968,16.9534778 C11.592597,16.9500512 10.9764802,17.5404704 10.9722695,18.2672138 C10.9679109,19.0123122 11.5790613,19.6189832 12.332872,19.6176471 C13.0714915,19.6164021 13.6916008,19.0109738 13.6937488,18.2889148 C13.6958855,17.5595902 13.0863905,16.9569343 12.3430968,16.9534778" id="Fill-11" fill="#606266"></path>
                        <path d="M2.83919115,13.8722423 C2.08284865,13.8676536 1.48192299,14.4537709 1.4814359,15.1965749 C1.48104658,15.9459752 2.06668374,16.521481 2.83023229,16.5218636 C3.58959354,16.5222458 4.19655669,15.9386141 4.19909576,15.205848 C4.20152302,14.4787222 3.58774334,13.8767355 2.83919115,13.8722423" id="Fill-13" fill="#606266"></path>
                        <path d="M6.03143952,16.9522305 C5.27324681,16.9528044 4.67894293,17.5379657 4.68030389,18.2826817 C4.68166954,19.0197498 5.28911959,19.6158093 6.03679536,19.6137117 C6.78164715,19.6115074 7.39338187,19.0080867 7.39231211,18.2765634 C7.39114216,17.5389217 6.78778202,16.9517528 6.03143952,16.9522305" id="Fill-15" fill="#606266"></path>
                        <path d="M9.10834249,10.3498313 C9.84316424,10.363024 10.4686294,9.77604632 10.4819703,9.06077482 C10.4957008,8.32322876 9.90246804,7.71866087 9.15206565,7.70537262 C8.41441991,7.69246676 7.79917954,8.26940654 7.77785354,8.99414234 C7.75652755,9.72251089 8.35891389,10.3363519 9.10834249,10.3498313" id="Fill-17" fill="#606266"></path>
                        <path d="M6.03851897,7.21901305 C6.79388768,7.21863046 7.38098553,6.64551463 7.38235156,5.90720378 C7.38380952,5.16793694 6.79836712,4.58889398 6.04699094,4.58640043 C5.28100792,4.58392283 4.68796996,5.162679 4.69010651,5.91054975 C4.69215725,6.64484544 5.2843188,7.21939525 6.03851897,7.21901305" id="Fill-19" fill="#606266"></path>
                        <path d="M6.00989929,13.459924 C6.76108071,13.4664247 7.3706731,12.8747627 7.3710628,12.1387462 C7.37145213,11.4061713 6.78435428,10.8263635 6.03550996,10.8199584 C5.27575919,10.8133621 4.67502829,11.3951774 4.67502829,12.1375034 C4.67493091,12.8676883 5.26621605,13.4535188 6.00989929,13.459924" id="Fill-21" fill="#606266"></path>
                        <path d="M2.82810942,3.53253497 C3.23213479,3.53051778 3.56887129,3.20203972 3.57296121,2.80606878 C3.57714851,2.40034675 3.23310858,2.061544 2.81963745,2.06411052 C2.41736491,2.06670634 2.0774149,2.39709638 2.07235119,2.79039055 C2.06728749,3.19123703 2.41687801,3.53462853 2.82810942,3.53253497" id="Fill-23" fill="#606266"></path>
                        <path d="M18.4197299,5.17572826 C18.0115172,5.18222899 17.6850055,5.50678749 17.6838332,5.90725158 C17.682571,6.31067924 18.004019,6.63361256 18.4142767,6.64087808 C18.8316429,6.6483348 19.1776304,6.31880515 19.1794872,5.91193593 C19.1812335,5.50955987 18.8299875,5.16913193 18.4197299,5.17572826" id="Fill-25" fill="#606266"></path>
                        <path d="M15.4622233,3.59148124 C15.8866008,3.59597439 16.2241164,3.27351907 16.2242138,2.86359068 C16.2243111,2.46331779 15.8983837,2.14153166 15.4861785,2.13522212 C15.0655987,2.1286258 14.7232142,2.45566987 14.7232142,2.86387748 C14.7233116,3.26262078 15.0528421,3.58717929 15.4622233,3.59148124" id="Fill-27" fill="#606266"></path>
                        <path d="M18.4382221,11.3707519 C18.0208559,11.3636775 17.6820744,11.6924424 17.681977,12.1045696 C17.6818796,12.5057028 18.0064438,12.8308349 18.4149486,12.8385785 C18.8262774,12.8464176 19.1766469,12.508284 19.176355,12.1039004 C19.1759653,11.7071646 18.8441951,11.377635 18.4382221,11.3707519" id="Fill-29" fill="#606266"></path>
                        <path d="M2.81023064,9.76639082 C3.22925238,9.77183996 3.57183161,9.44173672 3.57027884,9.03400711 C3.56861811,8.6350726 3.23879552,8.31242608 2.82892741,8.30879332 C2.40620527,8.30506496 2.06771596,8.63057945 2.06926866,9.03945625 C2.07063732,9.43753036 2.40055729,9.76103728 2.81023064,9.76639082" id="Fill-31" fill="#606266"></path>
                        <path d="M9.13463481,3.55553603 C9.54664526,3.55238126 9.87276745,3.23461029 9.87598095,2.83299901 C9.87919446,2.42221023 9.54518457,2.09832092 9.12119651,2.10118889 C8.69603991,2.10405686 8.37644211,2.42708578 8.38403767,2.84638287 C8.39134109,3.24875893 8.71931348,3.55869079 9.13463481,3.55553603" id="Fill-33" fill="#606266"></path>
                        <path d="M12.3246045,1.45674667 C12.7408023,1.45971024 13.0692615,1.14576322 13.0741305,0.740519185 C13.0789994,0.330304003 12.7634916,0.00899586312 12.3488519,0.00192153931 C11.9196054,-0.00543958142 11.5865693,0.311949 11.586277,0.728760512 C11.5860824,1.13534293 11.9090884,1.4538787 12.3246045,1.45674667" id="Fill-35" fill="#606266"></path>
                        <g id="编组" transform="translate(5.263599, 0.000000)">
                            <mask id="mask-2" fill="white">
                                <use xlink:href="#path-1"></use>
                            </mask>
                            <g id="Clip-38"></g>
                            <path d="M0.74948445,1.45380222 C1.16636384,1.45102985 1.48751971,1.13459726 1.48732504,0.726676454 C1.48713019,0.318277652 1.16665598,0.00232305498 0.749873966,-8.01456509e-05 C0.321893368,-0.00245689354 -0.0049104743,0.319329241 5.58534571e-05,0.738435127 C0.00482742326,1.14482635 0.331436508,1.45657459 0.74948445,1.45380222" id="Fill-37" fill="#606266" mask="url(#mask-2)"></path>
                        </g>
                        <path d="M0.513839641,11.6081623 C0.232414401,11.6107435 0.00931916797,11.8330111 0.00883145117,12.1110129 C0.00834537822,12.3936991 0.224234567,12.6086056 0.511794682,12.6115691 C0.793317301,12.6144371 1.02819539,12.3963759 1.03588833,12.1248748 C1.04377603,11.8467774 0.80003645,11.6055812 0.513839641,11.6081623" id="Fill-39" fill="#606266"></path>
                        <g id="编组" transform="translate(0.000000, 5.413090)">
                            <mask id="mask-4" fill="white">
                                <use xlink:href="#path-3"></use>
                            </mask>
                            <g id="Clip-42"></g>
                            <path d="M0.508513011,1.0037959 C0.791788451,1.00512814 1.02277138,0.787640481 1.0282246,0.51470542 C1.03377521,0.237755203 0.785556197,-0.00554417714 0.503351925,9.61621164e-05 C0.225821845,0.00554530343 -0.00107116873,0.234504838 -3.77724623e-06,0.507917893 C0.00116854771,0.786875689 0.222316201,1.00245137 0.508513011,1.0037959" id="Fill-41" fill="#606266" mask="url(#mask-4)"></path>
                        </g>
                    </g>
                    <path d="M65.6244761,9.50948736 C64.5686832,9.25998466 63.5541116,9.48108394 62.5589267,9.83194407 C62.363493,9.90090993 62.4770717,10.0018783 62.5558914,10.0832949 C63.7128281,11.2782816 64.0190991,12.7501043 63.8695864,14.3262999 C63.6967705,16.1481074 63.2911181,17.9271152 62.7288053,19.6744122 C62.1586595,21.4464164 61.4471278,23.1613219 60.7163073,24.8703911 C60.6920249,24.9271007 60.6872272,25.0157155 60.612324,25.0164937 C60.535952,25.0174664 60.5323293,24.9284625 60.5092219,24.8716556 C60.4210025,24.6546418 60.3365038,24.4360716 60.247697,24.2192523 C59.113574,21.4516691 57.760616,18.796046 56.1213612,16.2873036 C56.0390166,16.1612391 55.993781,16.049279 56.0522349,15.8847921 C56.3913066,14.9302618 56.6290387,13.9489818 56.7762015,12.9478583 C56.9637044,11.6723305 56.247277,10.2951534 55.0713452,9.75043013 C53.8198248,9.17059169 52.5637026,9.35900757 51.3242254,9.8300959 C51.1849935,9.8829146 51.2117237,9.95314499 51.2966141,10.0453589 C51.4557222,10.218503 51.6135575,10.3939817 51.756608,10.5800631 C52.6277375,11.7129902 52.7749982,13.0191587 52.6592654,14.3819395 C52.5357974,15.8373233 52.1937883,17.2544792 51.8258323,18.661227 C51.3118884,20.6265107 50.5438611,22.5059031 49.7526284,24.3747902 C49.731675,24.4242044 49.7231566,24.4870421 49.6392454,24.4902521 C49.6295521,24.4746886 49.6109487,24.4574714 49.6075217,24.4376279 C49.5072591,23.8480623 49.4044507,23.2586912 49.309965,22.6681528 C48.958752,20.4736963 48.3444476,18.3511238 47.5473402,16.2779655 C46.998931,14.8514715 46.4129234,13.4400547 45.6893484,12.0920592 C45.2222068,11.2217665 44.5727517,10.4778302 43.6941809,10.0076173 C42.3329983,9.27914725 40.8707697,9.25745559 39.3920918,9.58506771 C39.0993328,9.64994814 38.8196941,9.78029264 38.5984113,9.99399924 C38.2325115,10.3472912 38.2916508,10.8024269 38.7369578,11.0343234 C38.9011575,11.1198255 39.0813169,11.1778969 39.258441,11.2356764 C39.9641958,11.4654329 40.6109094,11.7711588 41.0905838,12.3748289 C41.592876,13.0069024 41.892391,13.7357616 42.221182,14.4573253 C43.7413748,17.7931716 44.6121127,21.2993411 45.055951,24.9219453 C45.1757962,25.9005989 45.2945643,26.8806144 45.4974395,27.8471091 C45.6163055,28.4129404 45.9097499,28.843369 46.5196483,28.9478392 C47.497111,29.1152443 48.3661843,28.8865578 49.0667498,28.1622704 C49.291949,27.9295958 49.5018739,27.6789258 49.6936849,27.4182368 C51.5525579,24.8928609 53.1417793,22.2057217 54.5458477,19.4088597 C54.7756488,18.950903 54.9852799,18.4830247 55.2060731,18.0160218 C55.2900822,18.0747741 55.2852845,18.155218 55.3016359,18.2232111 C55.8111737,20.3369319 56.0950227,22.4817797 56.2117347,24.6509455 C56.2695032,25.7252175 56.3161096,26.8009487 56.4479002,27.869968 C56.51311,28.3986414 56.8068482,28.7549488 57.3221628,28.892005 C58.0487731,29.0852845 58.759032,29.0094123 59.4374692,28.6804384 C59.9756955,28.4194576 60.3395391,27.9689909 60.6945706,27.5150225 C61.755455,26.1586616 62.6713305,24.7054178 63.5655674,23.2387504 C65.0971182,20.7266036 66.5109779,18.1580389 67.4443798,15.3543678 C67.7577005,14.4132611 68.0403745,13.4732244 67.9952368,12.4672373 C67.928754,10.9843256 67.0227676,9.83992038 65.6244761,9.50948736" id="Fill-43" fill="#606266"></path>
                    <path d="M35.3136195,10.0551021 C34.2119459,9.66046257 33.068995,9.47676257 31.901395,9.41100524 C30.0184849,9.30500977 28.1770476,9.47714488 26.4208059,10.1965569 C25.1688908,10.7094258 24.1041906,11.4554084 23.4122578,12.6292914 C22.4945714,14.1861537 22.4127993,16.4095735 24.1391101,17.9751332 C24.8920785,18.6578434 25.737872,19.2026353 26.654189,19.6412405 C28.0110581,20.2905942 29.3822079,20.9112746 30.7425983,21.5538423 C31.4999684,21.9114933 32.2198758,22.3289759 32.8054854,22.9329303 C33.2790006,23.4211402 33.5590407,23.9840918 33.4803986,24.6768377 C33.3671306,25.6755272 32.7758479,26.2989793 31.8481845,26.661027 C30.8812979,27.0384626 29.8639395,27.066658 28.845603,27.0659889 C28.184188,27.0656066 27.5305981,26.9806382 26.9022441,26.7617657 C26.1992583,26.5169916 25.6874002,26.0888044 25.5247363,25.3476007 C25.4330851,24.9295446 25.4746558,24.5109151 25.5739365,24.0962043 C25.6968881,23.5832397 25.9022965,23.1006688 26.1324517,22.6268911 C26.1805759,22.5277772 26.2309499,22.4321997 26.0752308,22.3804922 C25.2017561,22.0901277 24.3232929,21.8226062 23.3809575,21.9385418 C22.5845599,22.0365087 21.8828457,22.3134924 21.4173512,22.9958203 C20.6871733,24.0660973 20.7776508,25.7582973 21.6116088,26.7552664 C22.2863265,27.5618451 23.1956987,28.0095302 24.1801917,28.3271343 C25.7033438,28.8184027 27.2882162,28.9152227 28.8653613,29 C30.5688815,28.9159874 32.2530346,28.7815098 33.8705767,28.2289762 C35.0519684,27.8253523 36.1327099,27.2647901 36.9994355,26.3563258 C38.5615173,24.7190829 38.8320695,21.8999284 36.9876978,20.0729642 C36.3060354,19.3978046 35.5302765,18.8523437 34.6801792,18.4082905 C33.1961525,17.6330613 31.6357335,17.0135278 30.1186459,16.3054895 C29.4045094,15.9723063 28.7201083,15.5918122 28.1324446,15.0648934 C27.4993956,14.4970673 27.1860989,13.8061374 27.3794762,12.9686872 C27.573636,12.1277006 28.1951431,11.6693109 29.0049412,11.4555995 C29.9532432,11.2053776 30.9167064,11.1648527 31.8791914,11.4011203 C32.9428155,11.6621425 33.6593973,12.2837787 33.9679012,13.3274852 C34.0646387,13.655125 34.164702,13.9819045 34.2695581,14.3071548 C34.5184935,15.0795167 35.0272215,15.5487068 35.8801554,15.6143685 C36.9339982,15.6954182 38.1085429,15.2997273 38.3216786,13.8876651 C38.4641929,12.9438371 38.1981401,12.1086807 37.5258678,11.4089577 C36.9111099,10.7689706 36.1485557,10.3541642 35.3136195,10.0551021" id="Fill-45" fill="#606266"></path>
                </g>
            </g>
        </g>
    </g>
</svg>