<svg xmlns="http://www.w3.org/2000/svg" viewBox="0 0 63 36"><defs><style>.cls-1{fill:none;}.cls-2{fill:#fff;}</style></defs><g id="图层_2" data-name="图层 2"><g id="图层_1-2" data-name="图层 1"><rect class="cls-1" width="63" height="36"/><path class="cls-2" d="M2.64,11.39c.22-.35.44-.71.68-1.05s.52-.74.77-1.1c.37-.53.77-1.05,1.1-1.59.46-.75.91-1.51,1.31-2.29A12.06,12.06,0,0,0,7.58,2.64c.1-.46.4-.59.83-.38.21.11.44.21.64.33s.48.33.75.51c-.48.79-.89,1.52-1.35,2.23-.33.51-.74,1-1.08,1.47a9.52,9.52,0,0,0-.62,1.13.28.28,0,0,0,.14.4l.58.28c.52.23.64.4.49.93a14.56,14.56,0,0,0-.38,3.72c0,1,0,2-.06,3a.5.5,0,0,1-.46.54,3.43,3.43,0,0,1-.44.09c-.29,0-.39-.09-.39-.38,0-1.12,0-2.24,0-3.36,0-.75,0-1.51,0-2.26a3.43,3.43,0,0,0-.07-.56c0-.26-.23-.35-.45-.21s-.67.51-1,.74a12.28,12.28,0,0,1-1.22.69.68.68,0,0,1-.77,0Z"/><path class="cls-2" d="M60.36,9.34a7.8,7.8,0,0,0-1.19,2.31c-.13.34-.23.69-.37,1s-.42.32-.68.36l-1.56.21-2,.18a.42.42,0,0,1-.32-.13,17,17,0,0,1-1.38-1.93,10.56,10.56,0,0,1-.71-2,.42.42,0,0,1,.31-.53c.21-.07.43-.12.64-.18.84-.2,1.68-.43,2.53-.61a12.89,12.89,0,0,1,1.85-.27,3.58,3.58,0,0,1,2.12.69,4.41,4.41,0,0,1,.71.66Zm-5.74,1.17c.1,1,.37,1.26,1.3,1a3.09,3.09,0,0,0,1.23-.89,1.22,1.22,0,0,0,.3-1.31A.49.49,0,0,0,57.08,9a3.07,3.07,0,0,0-2,.61A1,1,0,0,0,54.62,10.51Z"/><path class="cls-2" d="M54.22,35.19A1,1,0,0,1,54,33.86a11.9,11.9,0,0,1,1.69-2.23c.35-.42.76-.79,1.12-1.2a1.75,1.75,0,0,0,.43-1.38c0-.09-.19-.21-.29-.22a2.84,2.84,0,0,0-1.46.47,11.49,11.49,0,0,1-1.25.54c-.36.13-.75-.33-.6-.71a11.43,11.43,0,0,1,.69-1.35c.22-.37.48-.72.73-1.07A7,7,0,0,1,57,24.77a2.57,2.57,0,0,1,1.3-.28c.06,0,.15.09.18.15a1,1,0,0,1-.33,1.07c-.26.21-.54.4-.81.59a.86.86,0,0,1-.23.06.62.62,0,0,1,0-.23c0-.15.11-.3.14-.45a.47.47,0,0,0,0-.31c0-.05-.21-.05-.27,0a5.37,5.37,0,0,0-.89.68,3.92,3.92,0,0,0-.94,1.66,2.75,2.75,0,0,0,0,.86c0,.1.19.24.31.25a1.78,1.78,0,0,0,1.1-.35c.38-.2.74-.43,1.12-.63a.25.25,0,0,1,.38.11,1.16,1.16,0,0,1,.13,1.2.09.09,0,0,0,0,.05c0,.15,0,.3,0,.45.13-.07.27-.12.39-.2.31-.19.61-.4.91-.59l.09.07c-.06.09-.11.18-.17.26a9.3,9.3,0,0,0-1.09,1.18,16.23,16.23,0,0,0-.86,1.72,7.57,7.57,0,0,1-1.67,2.56,4.37,4.37,0,0,1-1,.54Zm2.59-4.13-.12,0c-.35.39-.71.76-1,1.18A9.84,9.84,0,0,0,55,33.39c-.1.17-.15.42.07.51s.33-.08.5-.15.06-.06.09-.1a7.5,7.5,0,0,0,1.2-2.27A1.17,1.17,0,0,0,56.81,31.06Z"/><path class="cls-2" d="M36.51,11.71c-.53.15-1.08.27-1.6.45-.37.13-.55.12-.76-.21-.62-.93-1.26-1.85-1.83-2.82a3.53,3.53,0,0,1-.59-1.91.47.47,0,0,1,.39-.51c.74-.16,1.49-.29,2.23-.49s1.54-.49,2.3-.75c.24-.08.25-.31.25-.53,0-.84,0-1.68,0-2.52A3.17,3.17,0,0,1,37,1.89a.36.36,0,0,1,.47-.32c.58.16,1.15.33,1.71.52.33.12.33.23.13.54a2.76,2.76,0,0,0-.45,1.56c0,1.06.06.91.89.89.6,0,1.19-.07,1.78-.11A4.36,4.36,0,0,1,44,5.72c.34.21.68.43,1,.67s.42.65,0,1a4.94,4.94,0,0,0-.91,1c-.28.35-.48.75-.74,1.1a2.52,2.52,0,0,0-.44,1.26.29.29,0,0,1-.28.29l-1.21.11-1.93.17c-.39.05-.53.24-.56.7-.07,1-.17,1.95-.2,2.93a13.46,13.46,0,0,0,.11,1.55c0,.26.08.52.09.78s-.08.53-.45.59a4.4,4.4,0,0,1-1,0c-.37,0-.37-.35-.27-.65a3.59,3.59,0,0,0,.22-.9c0-.69,0-1.38,0-2.07s-.06-1.11-.11-1.66A2.64,2.64,0,0,0,37.1,12c-.09-.3-.35-.22-.57-.23Zm2.42-3.55v1c0,.52,0,.55.5.46a17.33,17.33,0,0,0,1.76-.42.8.8,0,0,0,.52-.48,4,4,0,0,0,.34-1.63.74.74,0,0,0-.69-.7q-.95,0-1.89.06c-.39,0-.54.2-.54.58ZM37,8.58h0c0-.39,0-.79-.08-1.18s-.12-.32-.35-.24c-.61.2-1.22.41-1.81.65a.6.6,0,0,0-.33.39,5,5,0,0,0,0,1.22,5.16,5.16,0,0,0,.36.92.28.28,0,0,0,.38.18l1.54-.39c.22-.06.34-.17.31-.42S37,9,37,8.58Z"/><path class="cls-2" d="M48.83,11.54c-.42.37-.81.74-1.22,1.08a14,14,0,0,1-2.31,1.75c-.29.15-.53.07-.78-.28s0-.43.14-.6c.73-.73,1.48-1.46,2.2-2.21.42-.43.81-.9,1.19-1.36a1.65,1.65,0,0,0,.14-.41,2.36,2.36,0,0,0-.44-.07,4.13,4.13,0,0,0-1.7.3c-.23.1-.45.24-.67.35-.38.2-.58.16-.79-.2A4.31,4.31,0,0,1,44.24,9c-.08-.26.09-.49.4-.62s.48-.16.72-.23l2-.59L49,7.13c.09,0,.22-.16.21-.24A3.52,3.52,0,0,0,49,6c-.08-.26-.33-.23-.55-.2-.52.06-1.05.11-1.57.15a.42.42,0,0,1-.33-.13.41.41,0,0,1,.12-.34,14.27,14.27,0,0,1,1.23-1c.67-.43,1.35-.84,2-1.22a8,8,0,0,1,1.28-.55c.4-.15.48-.08.72.26a1.31,1.31,0,0,1,.35,1,.73.73,0,0,1-.27.45c-.29.19-.63.29-.92.47a1,1,0,0,0-.43.44,3.73,3.73,0,0,0-.12.88c0,.22.1.31.31.3a2.56,2.56,0,0,1,.39,0,1,1,0,0,1,.94,1c0,.44-.06.56-.49.72-.25.1-.5.21-.74.33a.32.32,0,0,0-.11.56l.66.67a.91.91,0,0,1,.2,1c-.07.28-.4.25-.63.31a1.33,1.33,0,0,1-.2,0c-.3,0-.39.13-.39.43,0,1.6,0,3.2-.07,4.8,0,.33,0,.66-.05,1,0,.16-.06.26-.22.2A8.44,8.44,0,0,1,49.08,17c-.09-.05-.12-.29-.12-.43,0-.31.09-.62.1-.92,0-1.16,0-2.31,0-3.47A.67.67,0,0,0,48.83,11.54Z"/><path class="cls-2" d="M25.81,14.31v2.78a2.09,2.09,0,0,1,0,.25c0,.32-.21.43-.52.31s-.92-.35-1.36-.57c-.63-.33-1.26-.68-1.87-1a3.56,3.56,0,0,1-.65-.58.68.68,0,0,1-.11-.29.72.72,0,0,1,.28-.07l1.36.2c.26,0,.52.07.79.08a.42.42,0,0,0,.5-.45c0-1.43,0-2.85,0-4.28,0-.51,0-1,0-1.54s0-1-.06-1.5A3.85,3.85,0,0,0,24,6.87a.23.23,0,0,0-.34-.18,4.47,4.47,0,0,0-.59.27c-.26.13-.5.28-.76.4s-.43.09-.52-.15a2.59,2.59,0,0,1-.16-.72c0-.06.13-.17.22-.2C22.43,6,23,5.8,23.6,5.58a3.92,3.92,0,0,1,1-.25,5.58,5.58,0,0,1,1.29.11c.37.07.45.28.32.65a.91.91,0,0,1-.09.17A2.64,2.64,0,0,0,25.87,8a.35.35,0,0,0,.56.29c.44-.35.86-.73,1.28-1.1L29,6a.44.44,0,0,1,.63,0c.19.19.37.4.55.61s.09.24-.08.33a11.59,11.59,0,0,0-1.27.77c-.48.37-.9.82-1.34,1.23l0,0c-.12.13-.33.26-.33.38s.22.25.34.37c.54.52,1.05,1.07,1.62,1.55a6.3,6.3,0,0,0,2.42,1.29c.85.25,1.68.55,2.51.85a4.19,4.19,0,0,1,.82.41.39.39,0,0,1,.18.31c0,.08-.14.18-.24.23a3.18,3.18,0,0,1-1.4.23c-.67,0-1.34.06-2,.05a5,5,0,0,1-1.22-.18c-.43-.11-.59-.51-.77-.88a2.77,2.77,0,0,0-.79-1.07c-.5-.35-1-.72-1.48-1.06a5.41,5.41,0,0,0-.87-.43c-.26-.11-.38,0-.39.28s0,.49,0,.73v2.25Z"/><path class="cls-2" d="M41.6,22.13l1.47-.91a.34.34,0,0,1,.48.1,4,4,0,0,1,1,1.94,4.46,4.46,0,0,1,.1,1.45,8.6,8.6,0,0,1-.47,1.86,14.89,14.89,0,0,1-.74,1.5,2.54,2.54,0,0,1-1,1,14.8,14.8,0,0,1-1.81.83,1.13,1.13,0,0,1-.87-.11A4.28,4.28,0,0,1,38.08,28c-.19-.31-.18-.3-.46-.05a8.6,8.6,0,0,1-1.88,1.47,6.77,6.77,0,0,1-2.27.76c-.53.06-.77-.12-.77-.65a6.58,6.58,0,0,1,.13-1.48,4.43,4.43,0,0,1,.58-1.2c.37-.59.76-1.17,1.17-1.75.25-.36.52-.71.8-1.05L37.11,22a.78.78,0,0,0,.08-.23.8.8,0,0,0-.26,0l-2.6.66c-.26.07-.52.15-.77.24s-.23.17-.07.31l.94.77c.25.21.24.34,0,.53l-.4.25a.84.84,0,0,1-1.12-.15c-.44-.39-.84-.82-1.24-1.24a1.84,1.84,0,0,1-.28-.39c-.23-.4-.22-.53.16-.8a1.94,1.94,0,0,1,1.41-.53c.3.05.59.18.89.23a3.78,3.78,0,0,0,1.67-.09c.51-.14,1.05-.2,1.57-.32s.82-.21,1.24-.31a1.31,1.31,0,0,1,.36,0c-.18.28-.32.5-.47.7-.4.52-.81,1-1.2,1.56-.75,1-1.5,2-2.22,3a4,4,0,0,0-.82,2.26c0,.85.29.93,1,.84a2.86,2.86,0,0,0,1.54-.83A6.35,6.35,0,0,0,38,25.86c.3-.75.54-1.53.88-2.27a2.51,2.51,0,0,1,.87-1.3,4.59,4.59,0,0,1,.62-.33c.2-.08.5.19.45.46a4.79,4.79,0,0,1-.31,1.06c-.25.59-.55,1.16-.83,1.74a6.11,6.11,0,0,0-.38.77,2.36,2.36,0,0,0,.9,2.68,1.43,1.43,0,0,0,1,.33,2.46,2.46,0,0,0,.88-.37,3.47,3.47,0,0,0,1-1.61,5.86,5.86,0,0,0,.31-2.38,3.63,3.63,0,0,0-.62-1.77,1.53,1.53,0,0,0-1-.58l-.19-.05Z"/><path class="cls-2" d="M6.76,26.42a10,10,0,0,1-.67.79,2.38,2.38,0,0,0-.64,1.08.79.79,0,0,0,.5.86,6,6,0,0,0,1.33.14,9.32,9.32,0,0,0,2-.25,4.25,4.25,0,0,0,1.88-.89,1.3,1.3,0,0,0,.49-1.47,1.37,1.37,0,0,0-1-.92l-2.11-.52a13.57,13.57,0,0,1-1.69-.46,1.39,1.39,0,0,1-1-1.85,1.71,1.71,0,0,1,.4-.72,7.16,7.16,0,0,1,2-1.6,10.14,10.14,0,0,1,2.53-.95,3.6,3.6,0,0,1,2.27.16,1.14,1.14,0,0,1,.7,1.31,3.2,3.2,0,0,1-.94,1.75,2.73,2.73,0,0,1-1.28.78.67.67,0,0,1-.2,0,.78.78,0,0,1,0-.23l.64-.86a2.29,2.29,0,0,0,.42-1.13,1.13,1.13,0,0,0-1-1.13A3.12,3.12,0,0,0,8.85,21a9.12,9.12,0,0,0-1.06.79A1.89,1.89,0,0,0,7.06,23a1,1,0,0,0,.71,1,9.1,9.1,0,0,0,2.31.64A8,8,0,0,1,12,25.1a1.71,1.71,0,0,1,1,2.48,2.88,2.88,0,0,1-.92,1.05,8.23,8.23,0,0,1-2.44,1.13,9.24,9.24,0,0,1-2.43.37c-.73,0-1.46.05-2.18.05a1.31,1.31,0,0,1-1.13-.47,1.09,1.09,0,0,1-.26-1.1A3.2,3.2,0,0,1,5.4,26.75a7.36,7.36,0,0,1,.92-.37,1.93,1.93,0,0,1,.42-.06Z"/><path class="cls-2" d="M15.3,11.88a3.86,3.86,0,0,1,2.14.58c.41.26.39.4.17.81A14.67,14.67,0,0,0,17,15a3.57,3.57,0,0,0-.07.56c0,.31-.27.41-.54.44-.73.08-1.47.13-2.21.24-.54.08-1.07.24-1.6.36-.16,0-.32.05-.47.09-.57.13-.81-.29-1-.65a11.91,11.91,0,0,1-.77-1.51A11,11,0,0,1,9.9,13.4a.39.39,0,0,1,.3-.53l2.1-.45c.62-.14,1.23-.3,1.85-.42C14.53,11.93,14.92,11.92,15.3,11.88Zm-.33,2a.66.66,0,0,0-.77-.67,5.81,5.81,0,0,0-1.74.41c-.31.13-.44.31-.36.64.15.64.16.65.79.57H13a7.64,7.64,0,0,0,1.36-.29C14.91,14.35,15,14.3,15,13.91Z"/><path class="cls-2" d="M17.19,4.74a1.54,1.54,0,0,1,.48,0,1,1,0,0,1,.51.28,4.9,4.9,0,0,1,.44,1c.13.37,0,.51-.37.51-.89,0-1.78,0-2.67-.07a10.26,10.26,0,0,0-2.07.32L11,7.18a6.44,6.44,0,0,0-1.74.38.66.66,0,0,1-.57,0,.88.88,0,0,1-.31-.84c0-.1.15-.21.26-.25s.5-.12.76-.18c.78-.18,1.56-.34,2.34-.53,1-.24,2-.53,3-.75a14.08,14.08,0,0,1,1.59-.19c.31,0,.62-.06.92-.08Z"/><path class="cls-2" d="M22,9.08a2.06,2.06,0,0,1,1.62.6.32.32,0,0,1,0,.3c-.37.56-.72,1.13-1.14,1.65-.58.71-1.21,1.39-1.82,2.08-.2.24-.44.45-.63.69a1.46,1.46,0,0,1-1.39.5c-.4,0-.79-.06-1.18-.11-.09,0-.16-.1-.24-.14s.1-.19.17-.23c.36-.19.73-.35,1.1-.53a4,4,0,0,0,1.66-1.3c.27-.39.59-.75.84-1.15a2.4,2.4,0,0,0,.28-.79c0-.05-.15-.23-.21-.22a3.72,3.72,0,0,0-.94.25,7.91,7.91,0,0,0-.93.62c-.34.23-.49.17-.66-.2-.3-.62,0-.86.48-1,.65-.24,1.28-.57,1.93-.81A5.73,5.73,0,0,1,22,9.08Z"/><path class="cls-2" d="M15.44,27.31c.29-.28.53-.52.79-.74s.72-.6,1.08-.89c.18-.14.3-.07.35.13a.69.69,0,0,1,0,.25c0,.65,0,1.3,0,2a2.77,2.77,0,0,0,.07.7.81.81,0,0,0,.5.59c.18.07.24.2.07.34a5.73,5.73,0,0,1-.83.64c-.2.13-.54-.15-.54-.43l.06-2a1,1,0,0,0-.31-.75c-.16-.16-.24-.14-.36.05-.42.68-.83,1.36-1.29,2a2.25,2.25,0,0,1-.76.6c-.22.12-.33,0-.27-.25.12-.56.25-1.11.38-1.66s.21-1,.33-1.53c.22-1,.45-2,.66-2.94a.83.83,0,0,0-.22-.93,2,2,0,0,1,.89-.7c.05,0,.24.13.24.22a3.55,3.55,0,0,1,0,1c-.2.87-.46,1.73-.67,2.59-.12.47-.19.95-.27,1.43A1.1,1.1,0,0,0,15.44,27.31Z"/><path class="cls-2" d="M49.69,27.53c.25-.27.5-.55.77-.8A2.44,2.44,0,0,1,51.74,26c.44-.08.78.22.58.61a3.92,3.92,0,0,0-.21,1.66c0,.22,0,.45,0,.68a.47.47,0,0,0,.35.54c.19.06.17.17,0,.26a4.63,4.63,0,0,1-.71.43.39.39,0,0,1-.56-.36c0-.65,0-1.3.07-1.95,0-.37,0-.73,0-1.1,0-.07-.07-.19-.12-.2a.28.28,0,0,0-.24.08c-.28.32-.54.66-.8,1-.5.63-1,1.25-1.51,1.87a2.23,2.23,0,0,1-.48.38,1.22,1.22,0,0,1-.35.06c0-.15-.06-.32,0-.43.19-.41.44-.79.62-1.2a11.64,11.64,0,0,0,.43-1.3c0-.15-.19-.35-.42-.36l-.42,0,0-.11,1.23-1a.22.22,0,0,1,.16,0,1,1,0,0,1,.48.85c-.07.21-.15.42-.21.64s-.05.34-.08.51Z"/><path class="cls-2" d="M22.38,29.94a1.16,1.16,0,0,1,0-.36c.19-.58.41-1.15.6-1.73.11-.34.19-.68.27-1a.42.42,0,0,0-.19-.51c-.11,0-.28.07-.42.11l-.24.08-.06-.06c.09-.16.15-.38.29-.48a5.11,5.11,0,0,1,1-.52.32.32,0,0,1,.47.32c0,.4.07.8.11,1.19,0,.1,0,.2,0,.26.54-.35,1-.69,1.54-1a1.52,1.52,0,0,1,.61-.15c.19,0,.25.12.23.3-.08.78-.16,1.56-.23,2.34a.71.71,0,0,0,.22.65,3.64,3.64,0,0,0,.39.23l.15.08c-.26.4-.7.49-1.07.69a1.32,1.32,0,0,1-.54-1.59,10.65,10.65,0,0,0,.18-1.7.45.45,0,0,0-.19-.31s-.21.06-.28.14c-.47.53-.95,1.06-1.38,1.63A5.08,5.08,0,0,1,22.38,29.94Z"/><path class="cls-2" d="M30.93,25c.74-.06.89.65.62,1.25A3.32,3.32,0,0,1,30,27.93a3.56,3.56,0,0,0-.88.72c-.21.23-.1.48.21.52a3.15,3.15,0,0,0,.92,0,7.76,7.76,0,0,0,.89-.3,1.21,1.21,0,0,1,.19,0c0,.07,0,.16-.05.2a2.84,2.84,0,0,1-1.49.91,2.76,2.76,0,0,1-.95,0,.89.89,0,0,1-.76-.89,3.73,3.73,0,0,1,1-3.14A2.71,2.71,0,0,1,30.93,25Zm-1.87,2.46a1.72,1.72,0,0,0,.14.22s.12,0,.16-.05A4,4,0,0,0,30.64,26c0-.11.06-.28,0-.35a.53.53,0,0,0-.4-.18.88.88,0,0,0-.78.56C29.29,26.47,29.19,27,29.06,27.48Z"/><path class="cls-2" d="M10.36,10.73c0-.25.09-.32.32-.36.85-.18,1.7-.38,2.55-.59a8.49,8.49,0,0,1,2.7-.3.65.65,0,0,1,.42.33,4.08,4.08,0,0,1,.25.77c.06.23-.05.39-.3.34a8.3,8.3,0,0,0-2.72.24c-.92.13-1.83.3-2.74.45-.24,0-.34-.15-.4-.32A5,5,0,0,1,10.36,10.73Z"/><path class="cls-2" d="M16.06,8.37c0,.26-.16.34-.34.33a9.09,9.09,0,0,0-2.14.4c-.34.08-.68.11-1,.16s-1,.14-1.44.19-.49-.07-.62-.43c-.05-.13-.07-.27-.12-.4s0-.36.23-.4.69-.1,1-.18c.89-.2,1.77-.43,2.65-.64a6.77,6.77,0,0,1,1-.15c.47,0,.53,0,.66.47C16,7.93,16,8.15,16.06,8.37Z"/><path class="cls-2" d="M26,3.88a.65.65,0,0,1-.14,0c-.62-.22-1.25-.43-1.86-.68a.5.5,0,0,1-.24-.37A2.22,2.22,0,0,1,24.34,1c.21-.21.39-.21.58,0s.55.67.83,1,.45.44.67.67c.06.06.14.11.17.18s.28.44.1.68A.85.85,0,0,1,26,3.88Z"/><path class="cls-2" d="M15.12,3.68c0,.39-.26.56-.64.49a6.38,6.38,0,0,1-1.91-.62c-.24-.14-.38-.31-.27-.6a11.74,11.74,0,0,1,.48-1.24.49.49,0,0,1,.83-.1c.44.5.87,1,1.28,1.54A1.94,1.94,0,0,1,15.12,3.68Z"/><path class="cls-2" d="M20.82,26.16c-.09.35-.19.69-.27,1a13.22,13.22,0,0,0-.29,1.5c-.05.43.16.61.61.65a1.47,1.47,0,0,1,.28.08,2.4,2.4,0,0,1-.16.27,1.18,1.18,0,0,1-1.11.49.54.54,0,0,1-.53-.5,4.06,4.06,0,0,1,1.12-3.26l.27-.3Z"/><path class="cls-2" d="M46.56,26.11a2.92,2.92,0,0,0-.14.38c-.13.52-.26,1-.38,1.57a2.19,2.19,0,0,0-.07.67.87.87,0,0,0,.66.7c.21.09.2.19,0,.32a1.25,1.25,0,0,1-1.05.43.53.53,0,0,1-.33-.17,1.92,1.92,0,0,1-.19-1.62,5.06,5.06,0,0,1,.78-1.66c.18-.23.39-.45.59-.67Z"/><path class="cls-2" d="M20.8,25.16c-.2-.14-.36-.24-.5-.36a.21.21,0,0,1,0-.19,4,4,0,0,1,.65-.52.34.34,0,0,1,.47.12.4.4,0,0,1,0,.54A4.85,4.85,0,0,1,20.8,25.16Z"/><path class="cls-2" d="M47.28,24.43c-.15.14-.33.34-.53.51s-.34.17-.49,0-.21-.38,0-.55a4.2,4.2,0,0,1,.51-.35C47,23.89,47.3,24.09,47.28,24.43Z"/><rect class="cls-2" y="0.2" width="1.01" height="35.6"/><rect class="cls-2" x="61.99" y="0.2" width="1.01" height="35.6"/></g></g></svg>