<?xml version="1.0" encoding="UTF-8"?>
<svg width="200px" height="87px" viewBox="0 0 200 87" version="1.1" xmlns="http://www.w3.org/2000/svg" xmlns:xlink="http://www.w3.org/1999/xlink">
    <title>logo</title>
    <defs>
        <polygon id="path-1" points="0.0150106565 0.0626316688 4.36323547 0.0626316688 4.36323547 4.39204348 0.0150106565 4.39204348"></polygon>
        <polygon id="path-3" points="0 0.239963021 3.00630246 0.239963021 3.00630246 3.22922174 0 3.22922174"></polygon>
    </defs>
    <g id="页面3" stroke="none" stroke-width="1" fill="none" fill-rule="evenodd">
        <g id="logo" transform="translate(-202.000000, -281.000000)">
            <g id="编组-17" transform="translate(202.000000, 281.000000)">
                <g id="编组-16">
                    <path d="M35.9792461,30.512938 C32.8883733,30.5197859 30.3771281,33.0290383 30.3737077,36.1139327 C30.3700108,39.2503559 32.86389,41.735979 36.0145476,41.7362637 C39.1802938,41.7365484 41.6405796,39.2759779 41.6377352,36.1127939 C41.6348858,32.970677 39.1441382,30.5058361 35.9792461,30.512938" id="Fill-1" fill="#F17021"></path>
                    <path d="M45.2530604,21.5560826 C42.268092,21.5580766 39.8892274,23.9332403 39.8872336,26.9127996 C39.8855264,29.8983374 42.2549963,32.2797643 45.2362637,32.2889001 C48.2471389,32.2979844 50.6704151,29.8858111 50.656243,26.8937254 C50.6422308,23.9312475 48.236036,21.554091 45.2530604,21.5560826" id="Fill-3" fill="#F17021"></path>
                    <path d="M35.9978648,23.005666 C39.0150031,23.0042419 41.3648295,20.6601093 41.3639756,17.6523658 C41.3631213,14.6523088 39.0019074,12.3039059 35.987616,12.3047598 C32.9790184,12.3056141 30.6217901,14.6599954 30.6223594,17.6634687 C30.6229289,20.6675112 32.9770256,23.0070888 35.9978648,23.005666" id="Fill-5" fill="#F17021"></path>
                    <path d="M45.1554689,41.3253069 C42.9778796,41.3210442 41.1860445,43.1029152 41.1817653,45.2770882 C41.1772192,47.4711894 42.932614,49.2493594 45.1133349,49.259365 C47.3327734,49.2692877 49.142544,47.4802995 49.1360138,45.2822126 C49.1294483,43.1385014 47.3099983,41.3295849 45.1554689,41.3253069" id="Fill-7" fill="#203062"></path>
                    <path d="M26.7262711,41.3302966 C24.5515288,41.3075215 22.6936457,43.1480385 22.7007426,45.3182258 C22.7075955,47.4832887 24.5011388,49.2586119 26.6838524,49.2603217 C28.8836474,49.2623128 30.6481524,47.511473 30.6510021,45.3239196 C30.6535615,43.1235552 28.9138245,41.3533565 26.7262711,41.3302966" id="Fill-9" fill="#203062"></path>
                    <path d="M36.0852929,50.5493206 C33.8911917,50.5391163 32.0899619,52.2973581 32.0776517,54.4615669 C32.0649092,56.6804361 33.8516199,58.4870751 36.0554006,58.483096 C38.2147697,58.4793885 40.0276718,56.6764505 40.0339514,54.5261914 C40.0401981,52.354296 38.2583272,50.559614 36.0852929,50.5493206" id="Fill-11" fill="#203062"></path>
                    <path d="M8.30043273,41.373541 C6.08925013,41.3598759 4.33243182,43.1053066 4.3310078,45.3173433 C4.32986961,47.5490235 6.04199169,49.2628537 8.2742413,49.263993 C10.4942493,49.2651312 12.2687183,47.5271024 12.2761414,45.3449582 C12.2832375,43.1796105 10.4888402,41.3869214 8.30043273,41.373541" id="Fill-13" fill="#203062"></path>
                    <path d="M17.6330354,50.5456064 C15.4164437,50.5473154 13.6789842,52.2898992 13.682963,54.5076297 C13.6869555,56.702585 15.462848,58.4776234 17.6486933,58.4713768 C19.8262825,58.4648124 21.6147014,56.6678529 21.6115739,54.4894096 C21.6081535,52.2927461 19.844218,50.5441838 17.6330354,50.5456064" id="Fill-15" fill="#203062"></path>
                    <path d="M26.6284234,30.8839606 C28.7766896,30.9232477 30.6052497,29.1752548 30.6442521,27.0452087 C30.6843933,24.8488299 28.9500655,23.0484541 26.7562489,23.0088823 C24.5997267,22.9704492 22.801059,24.6885498 22.7387121,26.8467802 C22.6763651,29.0158287 24.4374537,30.8438194 26.6284234,30.8839606" id="Fill-17" fill="#203062"></path>
                    <path d="M17.6537323,21.5605255 C19.862068,21.5593862 21.5784604,19.8526732 21.582454,17.654017 C21.5867164,15.4525138 19.8751637,13.7281501 17.6785003,13.7207244 C15.4391334,13.7133462 13.7053749,15.4368559 13.7116212,17.6639811 C13.7176166,19.8506804 15.4488128,21.5616637 17.6537323,21.5605255" id="Fill-19" fill="#203062"></path>
                    <path d="M17.5700621,40.1456756 C19.7661561,40.1650344 21.5483118,38.4030917 21.5494511,36.211268 C21.5505893,34.0296931 19.8341969,32.3030519 17.6449354,32.2839777 C15.4237886,32.2643341 13.6675397,33.9969538 13.6675397,36.207567 C13.667255,38.3820247 15.3958891,40.1266014 17.5700621,40.1456756" id="Fill-21" fill="#203062"></path>
                    <path d="M8.26803507,10.5823608 C9.44921141,10.5763537 10.4336674,9.59816091 10.4456243,8.4189774 C10.457866,7.21075557 9.4520583,6.20181632 8.2432671,6.2094593 C7.06721517,6.21718955 6.07336446,7.20107613 6.05856061,8.37228833 C6.04375676,9.565991 7.06579172,10.5885953 8.26803507,10.5823608" id="Fill-23" fill="#203062"></path>
                    <path d="M53.8504527,15.475716 C52.6570347,15.4950749 51.7024711,16.4615954 51.6990439,17.6541593 C51.6953539,18.8555486 52.6351136,19.8172294 53.83451,19.8388658 C55.0546888,19.8610716 56.0661903,18.8797472 56.0716185,17.6681091 C56.0767238,16.4698514 55.0498491,15.4560724 53.8504527,15.475716" id="Fill-25" fill="#203062"></path>
                    <path d="M45.2041223,10.7579001 C46.4447987,10.7712805 47.4315322,9.81102317 47.431817,8.59027501 C47.4321016,7.39828048 46.4792461,6.44001594 45.2741559,6.42122644 C44.0445824,6.40158287 43.0436144,7.37550532 43.0436144,8.59112908 C43.0438991,9.77856858 44.007288,10.7450891 45.2041223,10.7579001" id="Fill-27" fill="#203062"></path>
                    <path d="M53.9045152,33.9242157 C52.6843364,33.9031487 51.693902,34.8821955 51.6936172,36.1094915 C51.6933326,37.3040483 52.6422024,38.2722769 53.8364744,38.2953368 C55.0390024,38.3186813 56.0633149,37.3117349 56.0624614,36.1074987 C56.0613221,34.9260377 55.0913853,33.9447133 53.9045152,33.9242157" id="Fill-29" fill="#203062"></path>
                    <path d="M8.2157661,29.1465012 C9.4407846,29.1627285 10.4423219,28.179696 10.4377824,26.9654956 C10.4329272,25.7774868 9.46868417,24.81666 8.27042646,24.8058418 C7.03458976,24.7947389 6.04500939,25.7641064 6.04954876,26.9817229 C6.05355008,28.1671696 7.01807778,29.1305586 8.2157661,29.1465012" id="Fill-31" fill="#203062"></path>
                    <path d="M26.7052895,10.6508569 C27.9098104,10.6414622 28.8632352,9.69515459 28.87263,8.4991744 C28.8820247,7.27586403 27.9055401,6.31133633 26.6660024,6.31987701 C25.4230485,6.3284177 24.4886978,7.29038319 24.5109036,8.53903092 C24.5322553,9.73728862 25.4910892,10.6602517 26.7052895,10.6508569" id="Fill-33" fill="#203062"></path>
                    <path d="M36.0312304,4.40075727 C37.2479929,4.40958265 38.2082503,3.47466264 38.2224848,2.26786426 C38.2367192,1.04626203 37.3143256,0.0894209418 36.1021181,0.0683539259 C34.8472072,0.0464328418 33.8735694,0.991601663 33.8727151,2.23284746 C33.872146,3.4436315 34.8164607,4.39221659 36.0312304,4.40075727" id="Fill-35" fill="#203062"></path>
                    <g id="编组" transform="translate(15.373228, 0.000000)">
                        <mask id="mask-2" fill="white">
                            <use xlink:href="#path-1"></use>
                        </mask>
                        <g id="Clip-38"></g>
                        <path d="M2.2061436,4.39198884 C3.42489894,4.38373285 4.36380459,3.44141092 4.36323547,2.22664123 C4.36266583,1.0104481 3.425753,0.0695496214 2.20728235,0.0623929987 C0.956072425,0.0553151512 0.000654785629,1.01357968 0.0151739452,2.26165803 C0.029123726,3.47187269 0.983971987,4.40024483 2.2061436,4.39198884" id="Fill-37" fill="#203062" mask="url(#mask-2)"></path>
                    </g>
                    <path d="M1.50222058,34.6312133 C0.6794682,34.6389 0.0272447759,35.3008028 0.025818926,36.1286796 C0.0243978819,36.9705062 0.65555429,37.610488 1.4962421,37.6193133 C2.31927917,37.627854 3.00595001,36.9784775 3.02844047,36.1699596 C3.05150031,35.3417981 2.33892274,34.6235267 1.50222058,34.6312133" id="Fill-39" fill="#203062"></path>
                    <g id="编组" transform="translate(0.000000, 15.942607)">
                        <mask id="mask-4" fill="white">
                            <use xlink:href="#path-3"></use>
                        </mask>
                        <g id="Clip-42"></g>
                        <path d="M1.48664807,3.22922174 C2.31480954,3.23318909 2.99009281,2.5855207 3.00603542,1.77273245 C3.02226271,0.947987246 2.29658942,0.223452713 1.47155953,0.240249388 C0.660194728,0.256476684 -0.00313158344,0.938307806 -1.1042855e-05,1.7525195 C0.00341627285,2.58324318 0.649945909,3.22521779 1.48664807,3.22922174" id="Fill-41" fill="#203062" mask="url(#mask-4)"></path>
                    </g>
                </g>
                <path d="M192.187952,28.013722 C189.118146,27.2834937 186.168194,27.9305927 183.274611,28.9574674 C182.706371,29.1593122 183.036611,29.4548198 183.265786,29.6931048 C186.629676,33.1905141 187.520184,37.4981495 187.085464,42.1112566 C186.582987,47.4432045 185.403519,52.649889 183.768548,57.7637647 C182.110801,62.9499516 180.041963,67.9690258 177.917042,72.9710186 C177.846439,73.1369925 177.832489,73.3963446 177.614701,73.3986221 C177.392644,73.401469 177.38211,73.1409782 177.314923,72.9747196 C177.058418,72.3395775 176.812731,71.6998804 176.554518,71.0653077 C173.256961,62.9653248 169.323122,55.1930194 164.556852,47.850595 C164.317429,47.4816375 164.185902,47.15396 164.355862,46.6725502 C165.341741,43.8788931 166.032967,41.0069464 166.460855,38.0769231 C167.006035,34.3437909 164.922963,30.3131583 161.503843,28.7188977 C157.864943,27.0218641 154.212663,27.5733075 150.60878,28.9520583 C150.203951,29.1066447 150.281672,29.3121904 150.528497,29.582076 C150.991118,30.0888231 151.450037,30.6024028 151.865968,31.1470136 C154.39885,34.4627911 154.827023,38.2856004 154.49052,42.274099 C154.131527,46.5336218 153.137106,50.6812617 152.067244,54.7984399 C150.572909,60.5503046 148.339805,66.0507886 146.03923,71.5205261 C145.978307,71.6651483 145.953539,71.8490577 145.70956,71.8584524 C145.681376,71.8129021 145.627285,71.7625121 145.617321,71.7044355 C145.325799,69.978933 145.026875,68.2539999 144.752149,66.5256505 C143.730969,60.1030576 141.944827,53.8908501 139.627171,47.8232648 C138.032625,43.6482947 136.328759,39.5174515 134.224905,35.5722257 C132.866651,33.0251096 130.978307,30.847805 128.423789,29.4716165 C124.466037,27.3395775 120.214485,27.2760918 115.915106,28.2349257 C115.063884,28.4248135 114.250811,28.8062973 113.607413,29.4317599 C112.543529,30.4657519 112.715481,31.7978136 114.010249,32.4765131 C114.487673,32.7267551 115.011501,32.8967147 115.526505,33.0658202 C117.578546,33.7382566 119.458919,34.6330354 120.853613,36.3998178 C122.314069,38.2497295 123.184934,40.3829072 124.140921,42.4947332 C128.561009,52.2578717 131.092752,62.5195012 132.383249,73.121904 C132.731709,75.9861641 133.077037,78.8544098 133.666913,81.6830838 C134.012526,83.339122 134.86574,84.5988726 136.639071,84.904629 C139.481125,85.3945795 142.008028,84.7252747 144.044981,82.6054774 C144.699767,81.9245004 145.310141,81.1908558 145.867847,80.4278882 C151.272676,73.0367819 155.893469,65.1722371 159.975915,56.9865627 C160.644081,55.6462449 161.253601,54.2768889 161.895576,52.9100951 C162.139839,53.0820475 162.12589,53.3174856 162.173433,53.5164835 C163.654956,59.7027843 164.480271,65.9801856 164.819621,72.3287593 C164.987588,75.4728691 165.1231,78.6212492 165.506292,81.7499858 C165.695895,83.2972727 166.549963,84.34009 168.048283,84.7412173 C170.160963,85.3068952 172.2261,85.0848374 174.198713,84.1220179 C175.763651,83.3581962 176.821557,82.0397996 177.85384,80.7111541 C180.93845,76.7414451 183.601435,72.4881854 186.201503,68.1956386 C190.654615,60.84325 194.76553,53.3257416 197.479474,45.1201389 C198.39048,42.3657689 199.212378,39.6145305 199.081136,36.6702727 C198.887832,32.3301828 196.253601,28.9808119 192.187952,28.013722" id="Fill-43" fill="#203062"></path>
                <path d="M103.470506,28.6659455 C100.264049,27.4904629 96.9374537,26.9432899 93.5391163,26.7474236 C88.0588453,26.431703 82.6992826,26.9444286 77.5876843,29.0872858 C73.9439447,30.6149291 70.8451005,32.8369299 68.8312077,36.3334852 C66.1602517,40.9707909 65.9222513,47.5935205 70.9467346,52.2567329 C73.1382736,54.2902693 75.5999829,55.9129989 78.2669533,57.2194386 C82.2161647,59.1536184 86.2069407,61.0023914 90.166401,62.9163583 C92.370751,63.981666 94.466065,65.2251893 96.1705005,67.0241417 C97.5486819,68.4783351 98.3637477,70.1551557 98.1348574,72.2185845 C97.805187,75.1933041 96.0842396,77.0503331 93.3842453,78.1287365 C90.5700905,79.252975 87.609036,79.3369584 84.6451347,79.3349656 C82.7200649,79.3338268 80.8177703,79.0807379 78.9889256,78.4287992 C76.9428628,77.6997096 75.4530832,76.4243011 74.9796447,74.2165348 C74.7128907,72.9713033 74.8338837,71.7243637 75.1228435,70.4890964 C75.4806981,68.9611684 76.0785458,67.5237716 76.74842,66.1125662 C76.8884872,65.8173433 77.0351022,65.5326539 76.5818767,65.3786369 C74.0396003,64.5137505 71.4828048,63.7169049 68.740107,64.0622331 C66.4221659,64.3540397 64.3798041,65.1790696 63.0249673,67.2114673 C60.8997609,70.3994192 61.1630986,75.4398451 63.5903604,78.4094403 C65.5541479,80.8119342 68.2009053,82.1454193 71.0663042,83.0914422 C75.4994876,84.5547458 80.11231,84.8431361 84.7026419,85.0956556 C89.6607926,84.8454137 94.5625747,84.4448557 99.2704834,82.7990662 C102.708962,81.5968229 105.854495,79.9271195 108.377128,77.2211467 C112.923618,72.3444172 113.711069,63.9472186 108.342965,58.5053806 C106.358965,56.4943347 104.101093,54.8696123 101.626858,53.5469453 C97.30755,51.2378295 92.7658999,49.3924728 88.3503672,47.2834937 C86.2718499,46.2910664 84.2798782,45.1577179 82.5694642,43.5882252 C80.7269544,41.8968855 79.8150942,39.8388658 80.3779252,37.3444172 C80.9430337,34.8394352 82.7519501,33.4740648 85.1088937,32.8374993 C87.8689575,32.0921824 90.6731481,31.9714741 93.4744918,32.6752263 C96.5702044,33.4527131 98.655839,35.304333 99.5537494,38.4131413 C99.8353072,39.3890565 100.126544,40.3624096 100.431731,41.3312077 C101.156266,43.6317827 102.636936,45.029323 105.119427,45.2249046 C108.186671,45.4663212 111.605221,44.2877071 112.225559,40.0817059 C112.640352,37.270398 111.865997,34.782782 109.909326,32.6985709 C108.120054,30.7922906 105.900615,29.5567386 103.470506,28.6659455" id="Fill-45" fill="#203062"></path>
            </g>
        </g>
    </g>
</svg>