<?xml version="1.0" encoding="UTF-8"?>
<svg width="200px" height="86px" viewBox="0 0 200 86" version="1.1" xmlns="http://www.w3.org/2000/svg" xmlns:xlink="http://www.w3.org/1999/xlink">
    <title>logo-white</title>
    <defs>
        <polygon id="path-1" points="0.0150482772 0.0627886405 4.3741709 0.0627886405 4.3741709 4.4030511 0.0150482772 4.4030511"></polygon>
        <polygon id="path-3" points="0 0.240564433 3.01383705 0.240564433 3.01383705 3.23731502 0 3.23731502"></polygon>
    </defs>
    <g id="页面3" stroke="none" stroke-width="1" fill="none" fill-rule="evenodd">
        <g id="logo" transform="translate(-591.000000, -281.000000)">
            <g id="logo-white" transform="translate(591.000000, 281.000000)">
                <g id="编组-16">
                    <path d="M36.0694197,30.5894115 C32.9708003,30.5962766 30.4532612,33.1118179 30.4498322,36.2044438 C30.4461261,39.3487277 32.9462556,41.8405805 36.1048097,41.8408659 C39.27849,41.8411513 41.744942,39.3744139 41.7420904,36.2033022 C41.7392339,33.0533103 39.2422439,30.5822919 36.0694197,30.5894115" id="Fill-1" fill="#F17021"></path>
                    <path d="M45.3664766,21.6101078 C42.3740271,21.6121069 39.9892004,23.9932234 39.9872016,26.9802503 C39.9854901,29.9732706 42.3608985,32.3606659 45.3496378,32.3698246 C48.368059,32.3789317 50.7974086,29.9607129 50.783201,26.9611283 C50.7691537,23.9912256 48.3569283,21.6081113 45.3664766,21.6101078" id="Fill-3" fill="#F17021"></path>
                    <path d="M36.088085,23.0633243 C39.1127851,23.0618966 41.4685007,20.711889 41.4676447,17.6966073 C41.4667883,14.6890314 39.0996566,12.3347428 36.0778105,12.3355988 C33.0616726,12.3364552 30.6985365,14.6967373 30.6991072,17.707738 C30.6996781,20.7193095 33.0596748,23.0647506 36.088085,23.0633243" id="Fill-5" fill="#F17021"></path>
                    <path d="M45.2686405,41.4288791 C43.0855936,41.4246058 41.2892677,43.2109426 41.2849778,45.3905646 C41.2804202,47.5901648 43.0402146,49.3727914 45.2264009,49.3828221 C47.4514019,49.3927696 49.2657083,47.5992977 49.2591617,45.3957019 C49.2525797,43.2466179 47.4285697,41.4331678 45.2686405,41.4288791" id="Fill-7" fill="#FEFEFE"></path>
                    <path d="M26.7932543,41.4338813 C24.6130614,41.4110491 22.750522,43.2561789 22.7576367,45.4318053 C22.7645068,47.6022945 24.5625451,49.382067 26.7507292,49.3837811 C28.9560375,49.3857773 30.7249648,47.6305494 30.7278216,45.4375134 C30.7303874,43.2316343 28.9862902,41.456999 26.7932543,41.4338813" id="Fill-9" fill="#FEFEFE"></path>
                    <path d="M36.1757323,50.6760106 C33.976132,50.6657808 32.1703878,52.4284292 32.1580469,54.5980621 C32.1452724,56.8224924 33.936461,58.6336592 36.145765,58.6296702 C38.3105461,58.6259534 40.1279918,56.8184967 40.1342872,54.6628485 C40.1405495,52.4855097 38.3542127,50.6863298 36.1757323,50.6760106" id="Fill-11" fill="#FEFEFE"></path>
                    <path d="M8.32123582,41.4772341 C6.10451141,41.4635347 4.34329004,43.21334 4.34186246,45.4309206 C4.34072142,47.668194 6.05713452,49.3863195 8.29497875,49.3874617 C10.5205507,49.3886027 12.299467,47.646218 12.3069086,45.4586047 C12.3140225,43.2878301 10.515128,41.490648 8.32123582,41.4772341" id="Fill-13" fill="#FEFEFE"></path>
                    <path d="M17.6772284,50.6722871 C15.4550814,50.6740004 13.7132674,52.4209516 13.7172562,54.6442403 C13.7212587,56.8446967 15.501602,58.6241839 17.6929256,58.6179216 C19.8759725,58.6113407 21.6688735,56.8098776 21.6657382,54.6259745 C21.6623093,52.4238056 19.8939528,50.6708609 17.6772284,50.6722871" id="Fill-15" fill="#FEFEFE"></path>
                    <path d="M26.6951613,30.961364 C28.8488117,31.0007496 30.6819546,29.2483757 30.7210548,27.1129912 C30.7612966,24.9111077 29.022622,23.1062197 26.8233072,23.0665487 C24.6613801,23.0280193 22.8582046,24.7504259 22.7957013,26.9140653 C22.7331981,29.0885501 24.4987005,30.9211222 26.6951613,30.961364" id="Fill-17" fill="#FEFEFE"></path>
                    <path d="M17.6979772,21.6145619 C19.9118476,21.6134198 21.6325418,19.9024293 21.6365454,17.6982626 C21.6408184,15.4912419 19.9249761,13.7625565 17.7228073,13.7551122 C15.477828,13.7477155 13.7397242,15.4755448 13.7459862,17.7082517 C13.7519966,19.9004315 15.4875317,21.615703 17.6979772,21.6145619" id="Fill-19" fill="#FEFEFE"></path>
                    <path d="M17.6140973,40.2462913 C19.8156954,40.2656987 21.6023176,38.4993401 21.6034598,36.3020231 C21.6046008,34.1149806 19.8839067,32.3840119 17.6891583,32.3648899 C15.4624448,32.3451971 13.7017942,34.0821592 13.7017942,36.2983128 C13.7015088,38.4782203 15.4344753,40.2271693 17.6140973,40.2462913" id="Fill-21" fill="#FEFEFE"></path>
                    <path d="M8.28875697,10.608883 C9.47289364,10.6028609 10.4598169,9.62221645 10.4718038,8.44007759 C10.4840762,7.22882763 9.47574767,6.21735972 8.26392691,6.22502185 C7.08492749,6.23277147 6.08858592,7.21912394 6.07374497,8.39327151 C6.05890402,9.58996592 7.08350047,10.6151332 8.28875697,10.608883" id="Fill-23" fill="#FEFEFE"></path>
                    <path d="M53.9854162,15.5145022 C52.7890072,15.5339096 51.8320512,16.5028525 51.8286155,17.6984053 C51.8249162,18.9028056 52.7670312,19.8668966 53.9694336,19.8885873 C55.1926705,19.9108487 56.2067071,18.9270649 56.2121489,17.7123901 C56.217267,16.5111292 55.1878187,15.4948094 53.9854162,15.5145022" id="Fill-25" fill="#FEFEFE"></path>
                    <path d="M45.3174158,10.7848623 C46.5612017,10.7982762 47.5504082,9.8356122 47.5506937,8.61180452 C47.550979,7.41682253 46.5957355,6.45615633 45.387625,6.43731974 C44.1549698,6.41762694 43.1514931,7.3939903 43.1514931,8.61266073 C43.1517786,9.80307627 44.117582,10.7720192 45.3174158,10.7848623" id="Fill-27" fill="#FEFEFE"></path>
                    <path d="M54.0396142,34.0092388 C52.8163773,33.988119 51.8234606,34.9696196 51.8231751,36.1999915 C51.8228898,37.3975421 52.7741377,38.3681974 53.9714029,38.3913151 C55.1769448,38.4147181 56.2038245,37.405248 56.2029688,36.1979937 C56.2018267,35.0135716 55.2294589,34.0297878 54.0396142,34.0092388" id="Fill-29" fill="#FEFEFE"></path>
                    <path d="M8.23635699,29.21955 C9.46444572,29.235818 10.4684932,28.2503218 10.4639422,27.0330783 C10.4590749,25.842092 9.4924152,24.8788572 8.29115435,24.8680119 C7.05222031,24.8568811 6.06015979,25.8286781 6.06471054,27.0493463 C6.06872188,28.237764 7.03566694,29.2035675 8.23635699,29.21955" id="Fill-31" fill="#FEFEFE"></path>
                    <path d="M26.7722201,10.6775508 C27.9797598,10.6681325 28.9355741,9.71945322 28.9449924,8.52047559 C28.9544107,7.29409928 27.9754788,6.32715422 26.7328345,6.3357163 C25.4867654,6.34427839 24.550073,7.30865483 24.5723344,8.560432 C24.5937397,9.76169285 25.5549767,10.6869691 26.7722201,10.6775508" id="Fill-33" fill="#FEFEFE"></path>
                    <path d="M36.1215343,4.41178674 C37.3413463,4.42063423 38.3040103,3.48337107 38.3182805,2.27354813 C38.3325506,1.04888424 37.4078452,0.0896450544 36.1925996,0.068525239 C34.9345436,0.0465492148 33.9584656,0.99408688 33.9576091,2.23844357 C33.9570386,3.45226215 34.90372,4.40322465 36.1215343,4.41178674" id="Fill-35" fill="#FEFEFE"></path>
                    <g id="编组" transform="translate(15.411757, 0.000000)">
                        <mask id="mask-2" fill="white">
                            <use xlink:href="#path-1"></use>
                        </mask>
                        <g id="Clip-38"></g>
                        <path d="M2.21167278,4.40299633 C3.43348264,4.39471965 4.37474144,3.45003601 4.3741709,2.23222179 C4.37359983,1.01298055 3.43433885,0.0697239312 2.21281439,0.0625493722 C0.958468596,0.0554537856 0.000656426696,1.01611998 0.0152119752,2.26732635 C0.0291967178,3.48057412 0.986438082,4.41127302 2.21167278,4.40299633" id="Fill-37" fill="#FEFEFE" mask="url(#mask-2)"></path>
                    </g>
                    <path d="M1.50598554,34.7180084 C0.681171128,34.7257142 0.0273130586,35.389276 0.0258836351,36.2192277 C0.0244590295,37.0631641 0.657197283,37.7047498 1.49999208,37.7135973 C2.3250919,37.7221594 3.01348372,37.0711554 3.03603055,36.2606111 C3.05914818,35.430374 2.3447847,34.7103025 1.50598554,34.7180084" id="Fill-39" fill="#FEFEFE"></path>
                    <g id="编组" transform="translate(0.000000, 15.982563)">
                        <mask id="mask-4" fill="white">
                            <use xlink:href="#path-3"></use>
                        </mask>
                        <g id="Clip-42"></g>
                        <path d="M1.490374,3.23731502 C2.32061107,3.24129232 2.99758678,2.5920007 3.01356934,1.77717539 C3.0298373,0.950363154 2.30234528,0.224012745 1.47524765,0.240851517 C0.661849351,0.257119483 -0.00313943202,0.940659455 -1.10705314e-05,1.75691178 C0.00342483493,2.58971748 0.651574846,3.23330104 1.490374,3.23731502" id="Fill-41" fill="#FEFEFE" mask="url(#mask-4)"></path>
                    </g>
                </g>
                <path d="M192.669626,28.0839319 C189.592126,27.3518734 186.634781,28.0005942 183.733946,29.0300425 C183.164282,29.2323932 183.495349,29.5286414 183.725099,29.7675236 C187.09742,33.2736984 187.99016,37.5921298 187.55435,42.2167986 C187.050613,47.5621097 185.868189,52.7818436 184.22912,57.9085361 C182.567219,63.1077209 180.493196,68.1393742 178.362949,73.1539034 C178.292169,73.3202933 178.278184,73.5802953 178.059851,73.5825785 C177.837237,73.5854326 177.826677,73.3242889 177.759322,73.1576136 C177.502174,72.5208797 177.255871,71.8795794 176.997011,71.2434163 C173.691189,63.1231327 169.747491,55.3313478 164.969276,47.9705213 C164.729252,47.6006391 164.597396,47.2721404 164.767781,46.7895241 C165.756131,43.9888653 166.44909,41.1097207 166.87805,38.172354 C167.424597,34.4298656 165.336304,30.3891312 161.908615,28.7908749 C158.260595,27.0895881 154.599161,27.6424136 150.986245,29.0246199 C150.580402,29.1795936 150.658317,29.3856545 150.905762,29.6562165 C151.369542,30.1642337 151.829611,30.6791005 152.246585,31.2250763 C154.785814,34.549164 155.21506,38.3815543 154.877714,42.3800491 C154.517821,46.6502474 153.520909,50.8082824 152.448365,54.9357794 C150.950285,60.7020598 148.711584,66.2163294 146.405243,71.6997755 C146.344167,71.8447602 146.319337,72.0291305 146.074747,72.0385488 C146.046492,71.9928843 145.992265,71.942368 145.982276,71.8841458 C145.690024,70.1543188 145.390351,68.4250625 145.114937,66.6923815 C144.091197,60.2536918 142.300579,54.0259149 139.977114,47.9431226 C138.378572,43.7576889 136.670435,39.6164927 134.561308,35.6613791 C133.199651,33.1078793 131.306573,30.9251178 128.745653,29.5454802 C124.777982,27.4080978 120.515774,27.3444529 116.20562,28.3056899 C115.352265,28.4960537 114.537154,28.8784936 113.892144,29.5055238 C112.825593,30.5421071 112.997976,31.8775074 114.295989,32.5579079 C114.774609,32.8087771 115.299751,32.9791626 115.816045,33.1486919 C117.873229,33.8228136 119.758315,34.7198349 121.156504,36.4910454 C122.620621,38.3455935 123.493668,40.4841175 124.452051,42.6012363 C128.883217,52.3888438 131.421305,62.6761917 132.715036,73.3051669 C133.06437,76.1766056 133.410563,79.0520399 134.001918,81.8878033 C134.348397,83.547992 135.20375,84.8108999 136.981525,85.1174226 C139.830702,85.608601 142.363938,84.9376188 144.405996,82.8125087 C145.062423,82.1298249 145.674326,81.3943416 146.233431,80.6294618 C151.651805,73.2198314 156.28418,65.335576 160.376857,57.1293861 C161.046698,55.7857092 161.657746,54.4129212 162.301329,53.0427018 C162.546205,53.2150852 162.53222,53.4511134 162.579882,53.65061 C164.065119,59.8524153 164.892502,66.1455495 165.232703,72.5100344 C165.40109,75.6620242 165.536942,78.818295 165.921094,81.9548729 C166.111173,83.5060378 166.967381,84.5514686 168.469457,84.9536013 C170.587432,85.5206969 172.657745,85.2980826 174.635301,84.33285 C176.204161,83.567114 177.264718,82.2454131 178.299589,80.9134377 C181.39193,76.9337795 184.061589,72.66986 186.668174,68.3665549 C191.132446,60.9957394 195.253664,53.4593901 197.97441,45.233222 C198.887699,42.4719488 199.711657,39.7138151 199.580087,36.7621782 C199.386298,32.4112108 196.745465,29.0534455 192.669626,28.0839319" id="Fill-43" fill="#FEFEFE"></path>
                <path d="M103.729831,28.7377899 C100.515338,27.5593613 97.1804047,27.0108169 93.7735502,26.8144597 C88.2795442,26.4979479 82.906549,27.0119585 77.7821397,29.1601862 C74.1292678,30.6916583 71.0226571,32.919228 69.0037169,36.4245465 C66.3260668,41.0734746 66.08747,47.7128025 71.124546,52.3877022 C73.3215776,54.4263352 75.7894566,56.0531317 78.463111,57.3628457 C82.4222202,59.3018731 86.4229982,61.1552796 90.3923819,63.0740434 C92.6022567,64.1420211 94.7028221,65.388661 96.4115293,67.192122 C97.7931648,68.64996 98.6102733,70.3309832 98.3808094,72.3995835 C98.0503128,75.3817585 96.3250522,77.2434417 93.618291,78.3245479 C90.7970832,79.451604 87.8286076,79.5357979 84.8572779,79.5338001 C82.9273834,79.5326584 81.0203211,79.2789353 79.1868928,78.6253626 C77.1357021,77.8944457 75.6421887,76.6158407 75.1675636,74.4025411 C74.9001411,73.1541888 75.0214373,71.904124 75.3111213,70.6657608 C75.6698727,69.1340034 76.2692189,67.6930041 76.9407719,66.2782618 C77.0811901,65.982299 77.2281726,65.6968961 76.7738112,65.5424931 C74.2251632,64.6754391 71.6619597,63.8765963 68.912388,64.2227901 C66.5886375,64.5153281 64.541157,65.3424257 63.1829246,67.3799171 C61.0523918,70.5758589 61.3163895,75.6289174 63.7497348,78.6059552 C65.718444,81.0144704 68.3718349,82.3512976 71.2444152,83.2996915 C75.6887093,84.7666624 80.3130927,85.0557756 84.9149292,85.308928 C89.8855063,85.0580588 94.7995737,84.6564969 99.5192816,83.0065827 C102.966378,81.8013262 106.119795,80.1274381 108.64875,77.4146834 C113.206634,72.5257316 113.996059,64.1074873 108.614502,58.6520107 C106.625529,56.6359245 104.361998,55.0071301 101.881562,53.6811482 C97.5514285,51.3662451 92.9983959,49.5162635 88.5717967,47.4019987 C86.4880701,46.4070842 84.4911059,45.2708952 82.7764052,43.6974689 C80.9292776,42.0018902 80.0151321,39.9387126 80.5793736,37.4380123 C81.1458984,34.9267521 82.9593485,33.5579597 85.3221992,32.9197988 C88.0891804,32.172614 90.9003991,32.0516031 93.7087637,32.7571191 C96.812235,33.5365545 98.9030967,35.392815 99.8032575,38.5094148 C100.085521,39.487776 100.377488,40.4635685 100.68344,41.4347946 C101.40979,43.7411356 102.894171,45.1421785 105.382884,45.3382503 C108.457815,45.5802719 111.884934,44.3987039 112.506826,40.1821613 C112.922659,37.3638075 112.146363,34.8699569 110.184788,32.7805222 C108.391031,30.8694643 106.16603,29.6308156 103.729831,28.7377899" id="Fill-45" fill="#FEFEFE"></path>
            </g>
        </g>
    </g>
</svg>