<?xml version="1.0" encoding="UTF-8"?>
<svg width="88px" height="38px" viewBox="0 0 88 38" version="1.1" xmlns="http://www.w3.org/2000/svg" xmlns:xlink="http://www.w3.org/1999/xlink">
    <title>sw</title>
    <defs>
        <polygon id="path-1" points="0.00660468887 0.0275579343 1.91982361 0.0275579343 1.91982361 1.93249913 0.00660468887 1.93249913"></polygon>
        <polygon id="path-3" points="0 0.105583729 1.32277308 0.105583729 1.32277308 1.42085756 0 1.42085756"></polygon>
    </defs>
    <g id="页面3" stroke="none" stroke-width="1" fill="none" fill-rule="evenodd">
        <g id="登录" transform="translate(-203.000000, -91.000000)">
            <g id="编组-17" transform="translate(203.000000, 91.000000)">
                <g id="编组-16">
                    <path d="M15.8308683,13.4256927 C14.4708842,13.4287058 13.3659363,14.5327769 13.3644314,15.8901304 C13.3628048,17.2701566 14.4601116,18.3638308 15.846401,18.363956 C17.2393293,18.3640813 18.321855,17.2814303 18.3206035,15.8896293 C18.3193498,14.5070979 17.2234208,13.4225679 15.8308683,13.4256927" id="Fill-1" fill="#F17021"></path>
                    <path d="M19.9113466,9.48467633 C18.5979605,9.48555372 17.55126,10.5306257 17.5503828,11.8416318 C17.5496316,13.1552685 18.5921984,14.2030963 19.903956,14.207116 C21.2287411,14.2111131 22.2949826,13.1497569 22.2887469,11.8332392 C22.2825816,10.5297489 21.2238558,9.48380003 19.9113466,9.48467633" id="Fill-3" fill="#F17021"></path>
                    <path d="M15.8390605,10.122493 C17.1666014,10.1218664 18.200525,9.0904481 18.2001493,7.76704094 C18.1997734,6.44701589 17.1608393,5.41371861 15.834551,5.4140943 C14.5107681,5.41447019 13.4735877,6.450398 13.4738381,7.77192621 C13.4740887,9.09370495 14.5098912,10.1231191 15.8390605,10.122493" id="Fill-5" fill="#F17021"></path>
                    <path d="M19.8684063,18.183135 C18.910267,18.1812595 18.1218596,18.9652827 18.1199767,19.9219188 C18.1179764,20.8873234 18.8903502,21.6697182 19.8498673,21.6741206 C20.8264203,21.6784866 21.6227194,20.8913318 21.6198461,19.9241735 C21.6169572,18.9809406 20.8163992,18.1850174 19.8684063,18.183135" id="Fill-7" fill="#203062"></path>
                    <path d="M11.7595593,18.1853305 C10.8026727,18.1753095 9.98520412,18.9851369 9.98832674,19.9400194 C9.99134203,20.892647 10.7805011,21.6737892 11.7408951,21.6745415 C12.7088049,21.6754176 13.485187,20.9050481 13.4864409,19.9425246 C13.487567,18.9743643 12.7220828,18.1954769 11.7595593,18.1853305" id="Fill-9" fill="#203062"></path>
                    <path d="M15.8775289,22.241701 C14.9121244,22.2372112 14.1195832,23.0108376 14.1141668,23.9630894 C14.10856,24.9393919 14.8947127,25.734313 15.8643762,25.7325623 C16.8144987,25.7309309 17.6121756,24.9376382 17.6149386,23.9915242 C17.6176872,23.0358902 16.833664,22.2462301 15.8775289,22.241701" id="Fill-11" fill="#203062"></path>
                    <path d="M3.6521904,18.204358 C2.67927006,18.1983454 1.90627,18.9663349 1.90564343,19.939631 C1.90514263,20.9215703 2.65847634,21.6756556 3.64066617,21.6761569 C4.61746968,21.6766577 5.39823606,20.9119251 5.40150219,19.9517816 C5.40462449,18.9990286 4.61508968,18.2102454 3.6521904,18.204358" id="Fill-13" fill="#203062"></path>
                    <path d="M7.75853556,22.2400668 C6.78323521,22.2408188 6.01875306,23.0075557 6.02050374,23.9833571 C6.02226043,24.9491374 6.80365313,25.7301543 7.76542504,25.7274058 C8.72356431,25.7245175 9.5104686,24.9338553 9.50909251,23.9753402 C9.50758754,23.0088083 8.7314559,22.2394409 7.75853556,22.2400668" id="Fill-15" fill="#203062"></path>
                    <path d="M11.7165063,13.5889427 C12.6617434,13.606229 13.4663099,12.8371121 13.4834709,11.8998918 C13.5011331,10.9334852 12.7380288,10.1413198 11.7727495,10.1239082 C10.8238797,10.1069977 10.032466,10.8629619 10.0050333,11.8125833 C9.97760064,12.7669646 10.7524796,13.5712805 11.7165063,13.5889427" id="Fill-17" fill="#203062"></path>
                    <path d="M7.7676422,9.48663124 C8.73930991,9.48612993 9.49452258,8.73517622 9.49627977,7.76776747 C9.49815521,6.79910608 8.74507203,6.04038604 7.77854011,6.03711874 C6.7932187,6.03387235 6.03036497,6.79221659 6.03311332,7.77215168 C6.0357513,8.73429938 6.79747765,9.48713204 7.7676422,9.48663124" id="Fill-19" fill="#203062"></path>
                    <path d="M7.73082731,17.6640972 C8.69710869,17.6726152 9.48125719,16.8973604 9.48175849,15.9329579 C9.4822593,14.973065 8.72704663,14.2133428 7.76377157,14.2049502 C6.786467,14.196307 6.01371747,14.9586597 6.01371747,15.9313295 C6.01359221,16.8880909 6.7741912,17.6557046 7.73082731,17.6640972" id="Fill-21" fill="#203062"></path>
                    <path d="M3.63793543,4.65623875 C4.15765302,4.65359563 4.59081364,4.2231908 4.5960747,3.70435005 C4.60146103,3.17273245 4.15890565,2.72879918 3.62703752,2.73216209 C3.10957467,2.7355634 2.67228036,3.1684735 2.66576667,3.68380687 C2.65925298,4.20903604 3.10894836,4.65898195 3.63793543,4.65623875" id="Fill-23" fill="#203062"></path>
                    <path d="M23.6941992,6.80931504 C23.1690953,6.81783294 22.7490873,7.24310198 22.7475793,7.7678301 C22.7459557,8.29644138 23.15945,8.71958094 23.6871844,8.72910095 C24.2240631,8.73887149 24.6691237,8.30708877 24.6715121,7.773968 C24.6737585,7.24673461 24.2219336,6.80067187 23.6941992,6.80931504" id="Fill-25" fill="#203062"></path>
                    <path d="M19.8898138,4.73347606 C20.4357114,4.73936343 20.8698742,4.3168502 20.8699995,3.779721 C20.8701247,3.25524341 20.4508683,2.83360701 19.9206286,2.82533963 C19.3796162,2.81669646 18.9391903,3.24522234 18.9391903,3.78009679 C18.9393156,4.30257018 19.3632067,4.72783921 19.8898138,4.73347606" id="Fill-27" fill="#203062"></path>
                    <path d="M23.7179867,14.9266549 C23.181108,14.9173854 22.7453169,15.348166 22.7451916,15.8881763 C22.7450663,16.4137812 23.162569,16.8398019 23.6880487,16.8499482 C24.2171611,16.8602198 24.6678586,16.4171634 24.667483,15.8872994 C24.6669817,15.3674566 24.2402095,14.9356739 23.7179867,14.9266549" id="Fill-29" fill="#203062"></path>
                    <path d="M3.61493708,12.8244605 C4.15394523,12.8316005 4.59462165,12.3990662 4.59262424,11.8648181 C4.59048796,11.3420942 4.16622103,10.9193304 3.63898764,10.9145704 C3.0952195,10.9096851 2.65980413,11.3362068 2.66180146,11.8719581 C2.66356203,12.3935546 3.08795422,12.8174458 3.61493708,12.8244605" id="Fill-31" fill="#203062"></path>
                    <path d="M11.7503274,4.68637704 C12.2803166,4.68224335 12.6998235,4.26586802 12.7039572,3.73963674 C12.7080909,3.20138017 12.2784376,2.77698799 11.7330411,2.78074589 C11.1861413,2.78450379 10.775027,3.2077686 10.7847976,3.7571736 C10.7941923,4.28440699 11.2160793,4.69051073 11.7503274,4.68637704" id="Fill-33" fill="#203062"></path>
                    <path d="M15.8537414,1.9363332 C16.3891169,1.94021636 16.8116301,1.52885156 16.8178933,0.997860274 C16.8241565,0.460355292 16.4183033,0.0393452144 15.884932,0.0300757274 C15.3327712,0.0204304504 14.9043706,0.436304732 14.9039946,0.982452884 C14.9037442,1.51519786 15.3192427,1.9325753 15.8537414,1.9363332" id="Fill-35" fill="#203062"></path>
                    <g id="编组" transform="translate(6.764220, 0.000000)">
                        <mask id="mask-2" fill="white">
                            <use xlink:href="#path-1"></use>
                        </mask>
                        <g id="Clip-38"></g>
                        <path d="M0.970703183,1.93247509 C1.50695553,1.92884245 1.92007402,1.51422081 1.91982361,0.979722143 C1.91957297,0.444597164 1.50733132,0.0306018334 0.971204236,0.0274529194 C0.420671867,0.0243386665 0.000288105677,0.445975061 0.0066765359,0.995129534 C0.0128144394,1.52762398 0.432947674,1.93610773 0.970703183,1.93247509" id="Fill-37" fill="#203062" mask="url(#mask-2)"></path>
                    </g>
                    <path d="M0.660977054,15.2377339 C0.298966008,15.241116 0.0119877014,15.5323532 0.0113603274,15.896619 C0.010735068,16.2670227 0.288443888,16.5486147 0.658346524,16.5524979 C1.02048283,16.5562558 1.322618,16.2705301 1.33251381,15.9147822 C1.34266014,15.5503912 1.029126,15.2343518 0.660977054,15.2377339" id="Fill-39" fill="#203062"></path>
                    <g id="编组" transform="translate(0.000000, 7.014747)">
                        <mask id="mask-4" fill="white">
                            <use xlink:href="#path-3"></use>
                        </mask>
                        <g id="Clip-42"></g>
                        <path d="M0.654125149,1.42085756 C1.0185162,1.4226032 1.31564084,1.13762911 1.32265558,0.780002278 C1.32979559,0.417114388 1.01049935,0.0983191938 0.647486193,0.105709731 C0.29048568,0.112849741 -0.00137789671,0.412855435 -4.85885621e-06,0.771108581 C0.00150316005,1.136627 0.2859762,1.41909583 0.654125149,1.42085756" id="Fill-41" fill="#203062" mask="url(#mask-4)"></path>
                    </g>
                </g>
                <path d="M84.5626989,12.3260377 C83.2119843,12.0047372 81.9140056,12.2894608 80.640829,12.7412857 C80.3908034,12.8300974 80.5361089,12.9601207 80.6369459,13.0649661 C82.1170575,14.6038262 82.5088812,16.4991858 82.3176041,18.5289529 C82.0965143,20.87501 81.5775483,23.1659511 80.8581609,25.4160565 C80.1287525,27.6979787 79.2184638,29.9063713 78.2834983,32.1072482 C78.252433,32.1802767 78.2462951,32.2943916 78.1504686,32.2953937 C78.0527632,32.2966464 78.0481285,32.1820304 78.0185663,32.1088766 C77.905704,31.8294141 77.7976018,31.5479474 77.6839879,31.2687354 C76.2330627,27.7047429 74.5021739,24.2849285 72.4050151,21.0542618 C72.2996686,20.8919205 72.241797,20.7477424 72.3165792,20.5359221 C72.7503661,19.306713 73.0545055,18.0430564 73.2427763,16.7538462 C73.4826556,15.111268 72.5661037,13.3377897 71.0616911,12.636315 C69.4605751,11.8896202 67.8535717,12.1322553 66.2678631,12.7389057 C66.0897387,12.8069236 66.1239355,12.8973638 66.2325389,13.0161134 C66.4360918,13.2390822 66.6380163,13.4650572 66.821026,13.704686 C67.9354939,15.1636281 68.12389,16.8456642 67.9758287,18.6006035 C67.8178717,20.4747936 67.3803268,22.2997552 66.9095872,24.1113136 C66.2520799,26.642134 65.2695143,29.062347 64.2572613,31.4690315 C64.2304549,31.5326653 64.219557,31.6135854 64.1122063,31.6177191 C64.0998053,31.5976769 64.0760052,31.5755053 64.071621,31.5499516 C63.9433514,30.7907305 63.8118249,30.0317599 63.6909457,29.2712862 C63.2416261,26.4453453 62.455724,23.711974 61.4359551,21.0422365 C60.7343552,19.2052497 59.9846541,17.3876786 59.058958,15.6517793 C58.4613267,14.5310482 57.6304549,13.5730342 56.506467,12.9675112 C54.7650561,12.0294141 52.8943734,12.0014804 51.0026465,12.4233673 C50.6281091,12.506918 50.270357,12.6747708 49.9872619,12.9499744 C49.5191528,13.4049308 49.5948118,13.991038 50.1645095,14.2896658 C50.3745761,14.3997722 50.6050606,14.4745545 50.831662,14.5489609 C51.7345602,14.8448329 52.5619245,15.2385356 53.1755896,16.0159198 C53.8181905,16.829881 54.2013711,17.7684792 54.6220054,18.6976826 C56.5668439,22.9934635 57.6808108,27.5085805 58.2486295,32.1736378 C58.4019518,33.4339122 58.5538963,34.6959403 58.8134419,35.9405569 C58.9655116,36.6692137 59.3409258,37.223504 60.1211911,37.3580368 C61.371695,37.573615 62.4835324,37.2791209 63.3797916,36.3464101 C63.6678973,36.0467802 63.9364619,35.7239765 64.1818528,35.3882708 C66.5599772,32.136184 68.5931265,28.6757843 70.3894027,25.0740876 C70.6833958,24.4843478 70.9515846,23.8818311 71.2340534,23.2804418 C71.3415294,23.3561009 71.3353914,23.4596937 71.3563104,23.5472527 C72.0081808,26.2692251 72.3713193,29.0312817 72.5206331,31.8246541 C72.5945385,33.2080624 72.6541639,34.5933497 72.8227683,35.9699937 C72.9061937,36.6508 73.2819837,37.1096396 73.9412447,37.2861356 C74.8708239,37.5350339 75.7794841,37.4373285 76.6474338,37.0136879 C77.3360064,36.6776063 77.8014849,36.0975118 78.2556898,35.5129078 C79.6129181,33.7662358 80.7846313,31.8948016 81.9286614,30.006081 C83.8880305,26.77103 85.6968331,23.4633263 86.8909685,19.8528611 C87.2918112,18.6409383 87.6534464,17.4303934 87.5957001,16.13492 C87.5106462,14.2252804 86.3515846,12.7515573 84.5626989,12.3260377" id="Fill-43" fill="#203062"></path>
                <path d="M45.5270227,12.613016 C44.1161817,12.0958037 42.6524796,11.8550475 41.1572112,11.7688664 C38.7458919,11.6299493 36.3876843,11.8555486 34.1385811,12.7984057 C32.5353356,13.4705688 31.1718442,14.4482492 30.2857314,15.9867335 C29.1105107,18.027148 29.0057906,20.941149 31.2165632,22.9929625 C32.1808404,23.8877185 33.2639925,24.6017195 34.4374594,25.176553 C36.1751125,26.0275921 37.9310539,26.8410522 39.6732164,27.6831976 C40.6431304,28.151933 41.5650686,28.6990833 42.3150202,29.4906223 C42.92142,30.1304675 43.280049,30.8682685 43.1793372,31.7761772 C43.0342823,33.0850538 42.2770654,33.9021466 41.0890679,34.3766441 C39.8508398,34.871309 38.5479759,34.9082617 37.2438592,34.9073848 C36.3968286,34.9068838 35.5598189,34.7955247 34.7551273,34.5086716 C33.8548596,34.1878722 33.1993566,33.6266925 32.9910437,32.6552753 C32.8736719,32.1073735 32.9269088,31.55872 33.0540511,31.0152024 C33.2115071,30.3429141 33.4745602,29.7104595 33.7693048,29.0895291 C33.8309344,28.959631 33.895445,28.8343677 33.6960257,28.7666002 C32.5774241,28.3860502 31.4524341,28.0354381 30.2456471,28.1873826 C29.225753,28.3157775 28.3271138,28.6787906 27.7309856,29.5730456 C26.7958948,30.9757445 26.9117634,33.1935319 27.9797586,34.5001537 C28.8438251,35.557251 30.0083983,36.1439845 31.2691738,36.5602346 C33.2197745,37.2040881 35.2494164,37.3309799 37.2691624,37.4420885 C39.4507487,37.331982 41.6075329,37.1557365 43.6790127,36.4315891 C45.1919433,35.9026021 46.5759779,35.1679326 47.6859363,33.9773046 C49.6863918,31.8315436 50.0328702,28.1367762 47.6709047,25.7423675 C46.7979445,24.8575073 45.804481,24.1426294 44.7158173,23.5606559 C42.815322,22.544645 40.816996,21.732688 38.8741616,20.8047372 C37.959614,20.3680692 37.0831464,19.8693959 36.3305643,19.1788191 C35.5198599,18.4346296 35.1186415,17.529101 35.3662871,16.4315436 C35.6149348,15.3293515 36.4108581,14.7285885 37.4479132,14.4484997 C38.6623413,14.1205603 39.8961852,14.0674486 41.1287764,14.3770996 C42.4908899,14.7191938 43.4085692,15.5339065 43.8036497,16.9017822 C43.9275352,17.3311849 44.0556796,17.7594602 44.1899619,18.1857314 C44.508757,19.1979844 45.1602517,19.8129021 46.252548,19.898958 C47.6021352,20.0051813 49.1062973,19.4865911 49.3792461,17.6359506 C49.5617548,16.3989751 49.2210385,15.3044241 48.3601036,14.3873712 C47.5728235,13.5486079 46.5962706,13.004965 45.5270227,12.613016" id="Fill-45" fill="#203062"></path>
            </g>
        </g>
    </g>
</svg>