<?xml version="1.0" encoding="UTF-8"?>
<svg width="84px" height="24px" viewBox="0 0 84 24" version="1.1" xmlns="http://www.w3.org/2000/svg" xmlns:xlink="http://www.w3.org/1999/xlink">
    <title>产品logo蓝</title>
    <g id="页面3" stroke="none" stroke-width="1" fill="none" fill-rule="evenodd">
        <g id="登录" transform="translate(-202.000000, -113.000000)">
            <g id="新logo" transform="translate(202.000000, 44.999965)">
                <g id="编组" transform="translate(0.000000, 68.000000)">
                    <path d="M59.6033823,2.94985146 C57.8605446,2.94985146 55.5368844,4.12929544 54.8783228,6.01746996 L54.8783228,3.34323593 L48.7206419,3.34323593 L48.7206419,23.8311533 L54.8783228,23.8311533 L54.8783228,13.765264 C54.8783228,10.7370195 56.2724449,9.95025052 57.9767831,9.95025052 C59.3709052,9.95025052 60.0679662,10.5011307 60.0679662,10.5011307 L63.1660564,3.81501352 C63.1660564,3.81501352 62.4301258,2.94985146 59.6033823,2.94985146" id="Fill-1" fill="#203062"></path>
                    <path d="M74.1928363,18.7112668 C71.9883761,18.7112668 70.8855908,16.6652419 70.8855908,13.4223917 C70.8855908,10.9904314 71.6840829,8.24951004 74.1928363,8.24951004 C76.7774779,8.24951004 77.4238233,10.9904314 77.4238233,13.4223917 C77.4238233,16.6652419 76.3972964,18.7112668 74.1928363,18.7112668 M74.1928363,2.84499623 C70.0874689,2.84499623 64.3095992,5.81790449 64.3095992,13.4223917 C64.3095992,21.0272336 69.9353223,24.0001419 74.1928363,24.0001419 C78.4499801,24.0001419 84.0001851,21.0272336 84.0001851,13.4223917 C84.0001851,5.81790449 78.2982037,2.84499623 74.1928363,2.84499623" id="Fill-3" fill="#203062"></path>
                    <path d="M36.7955306,10.9729792 L33.1162478,10.9729792 L33.1162478,6.29280362 L36.7955306,6.29280362 C38.0349147,6.29280362 39.1580603,7.23671352 39.1580603,8.65240101 C39.1580603,10.0290693 38.305521,10.9729792 36.7955306,10.9729792 M37.5699606,7.09439978e-05 L29.1448879,7.09439978e-05 L26.6487209,7.09439978e-05 L23.928591,7.09439978e-05 L23.928591,0.00397286392 L30.5915764,6.31124906 L26.6487209,6.31124906 L26.6487209,23.8312242 L33.1162478,23.8312242 L33.1162478,17.2657119 L37.5699606,17.2657119 C41.7138274,17.2657119 45.3546108,13.3325766 45.3546108,8.65240101 C45.3546108,3.93285151 42.062543,7.09439978e-05 37.5699606,7.09439978e-05" id="Fill-5" fill="#203062"></path>
                    <path d="M17.2573505,6.31117811 L23.9236676,0.00106415998 L23.9236676,0 L21.3586459,0 L18.7073707,0 L15.085837,0 L12.9802166,3.93136168 L15.0047662,14.3867335 L10.6991279,20.2456436 L6.35387971,14.3867335 L8.37805905,3.93136168 L6.2724387,0 L0,0 L0,13.585421 C0,20.4872079 3.50566539,23.937924 10.5173664,23.937924 C17.744886,23.937924 21.3586459,20.4052676 21.3586459,13.3392453 L21.3586459,6.31117811 L17.2573505,6.31117811 Z" id="Fill-7" fill="#FF6600"></path>
                </g>
            </g>
        </g>
    </g>
</svg>