<?xml version="1.0" standalone="no"?><!DOCTYPE svg PUBLIC "-//W3C//DTD SVG 1.1//EN" "http://www.w3.org/Graphics/SVG/1.1/DTD/svg11.dtd"><svg t="1626082145592" class="icon" viewBox="0 0 1024 1024" version="1.1" xmlns="http://www.w3.org/2000/svg" p-id="1061" xmlns:xlink="http://www.w3.org/1999/xlink" width="200" height="200"><defs><style type="text/css"></style></defs><path d="M128 938.667c0-188.514 171.923-341.334 384-341.334s384 152.82 384 341.334h-96c0-141.385-128.942-256-288-256s-288 114.615-288 256h-96z m384-384c-141.44 0-256-114.56-256-256s114.56-256 256-256 256 114.56 256 256-114.56 256-256 256z m0-85.334c94.293 0 170.667-76.373 170.667-170.666C682.667 204.373 606.293 128 512 128s-170.667 76.373-170.667 170.667c0 94.293 76.374 170.666 170.667 170.666z" p-id="1062"></path></svg>